<!-- Created with Inkscape (http://www.inkscape.org/) -->
<svg id="svg3866" xmlns:rdf="http://www.w3.org/1999/02/22-rdf-syntax-ns#" xmlns="http://www.w3.org/2000/svg" viewBox="0 0 400 400" version="1.1" xmlns:cc="http://creativecommons.org/ns#" xmlns:dc="http://purl.org/dc/elements/1.1/">
	<metadata id="metadata3871">
		<rdf:RDF>
			<cc:Work rdf:about="">
				<dc:format>image/svg+xml</dc:format>
				<dc:type rdf:resource="http://purl.org/dc/dcmitype/StillImage"/>
				<dc:title/>
			</cc:Work>
		</rdf:RDF>
	</metadata>
	<g id="layer1" transform="translate(0,-652.36218)">
		<g id="g5380" stroke-miterlimit="4" transform="matrix(0.43478261,0,0,0.43478261,280.8122,530.08601)">
			<path id="path4000" d="M960,500c0,254.05-205.95,460-460,460s-460-205.95-460-460,205.95-460,460-460,460,205.95,460,460z" transform="translate(-685.86807,241.2352)" stroke-width="0" fill="#90b12f"/>
			<rect id="rect4022" stroke-linejoin="round" stroke-dasharray="none" stroke-dashoffset="0" transform="matrix(0.96592583,0.25881905,-0.25881905,0.96592583,0,0)" height="440" width="372.31" stroke="#333" stroke-linecap="square" y="544.08" x="-173.84" stroke-width="10" fill="#FFF"/>
			<rect id="rect4002" stroke-linejoin="round" stroke-dasharray="none" stroke-dashoffset="0" height="440" width="372.31" stroke="#333" stroke-linecap="square" y="521.24" x="-372.02" stroke-width="10" fill="#FFF"/>
			<path id="path4004" stroke-linejoin="miter" d="m-304.33,588.93,236.92,0" stroke="#333" stroke-linecap="round" stroke-dasharray="none" stroke-width="10" fill="#FFF"/>
			<path id="path4006" stroke-linejoin="miter" d="m-304.33,690.47,236.92,0" stroke="#333" stroke-linecap="round" stroke-dasharray="none" stroke-width="10" fill="#FFF"/>
			<path id="path4008" stroke-linejoin="miter" d="m-304.33,792,236.92,0" stroke="#333" stroke-linecap="round" stroke-dasharray="none" stroke-width="10" fill="#FFF"/>
			<path id="path4010" stroke-linejoin="miter" d="m-304.33,893.54,236.92,0" stroke="#333" stroke-linecap="round" stroke-dasharray="none" stroke-width="10" fill="#FFF"/>
			<path id="path4016" stroke-linejoin="miter" d="m-304.33,639.7,236.92,0" stroke="#333" stroke-linecap="round" stroke-dasharray="none" stroke-width="10" fill="#FFF"/>
			<path id="path4018" stroke-linejoin="miter" d="m-304.33,741.24,236.92,0" stroke="#333" stroke-linecap="round" stroke-dasharray="none" stroke-width="10" fill="#FFF"/>
			<path id="path4020" stroke-linejoin="miter" d="m-304.33,842.77,236.92,0" stroke="#333" stroke-linecap="round" stroke-dasharray="none" stroke-width="10" fill="#FFF"/>
		</g>
	</g>
</svg>
