<!-- Created with Inkscape (http://www.inkscape.org/) -->
<svg id="svg3866" xmlns:rdf="http://www.w3.org/1999/02/22-rdf-syntax-ns#" xmlns="http://www.w3.org/2000/svg" viewBox="0 0 400 400" version="1.1" xmlns:cc="http://creativecommons.org/ns#" xmlns:dc="http://purl.org/dc/elements/1.1/">
	<metadata id="metadata3871">
		<rdf:RDF>
			<cc:Work rdf:about="">
				<dc:format>image/svg+xml</dc:format>
				<dc:type rdf:resource="http://purl.org/dc/dcmitype/StillImage"/>
				<dc:title/>
			</cc:Work>
		</rdf:RDF>
	</metadata>
	<g id="layer1" transform="translate(0,-652.36218)">
		<g id="g6399" fill="#333" stroke-miterlimit="4" transform="matrix(0.4347826,0,0,0.4347826,449.13495,618.34283)">
			<path id="path6366" d="m-113.01,538.24a460,460,0,0,1,-920,0,460,460,0,1,1,920,0z" stroke-width="0"/>
			<rect id="rect6510" stroke-linejoin="round" stroke-dasharray="none" stroke-dashoffset="0" height="226.8" width="467.35" stroke="#FFF" stroke-linecap="square" y="376.46" x="-804.28" stroke-width="10"/>
			<path id="rect6514" stroke-linejoin="round" d="m-745.86,404.81c0,15.657-13.077,28.35-29.209,28.35v113.4c16.132,0,29.209,12.693,29.209,28.35h350.51c0-15.657,13.077-28.35,29.209-28.35v-113.4c-16.132,0-29.209-12.693-29.209-28.35h-350.51z" stroke-dashoffset="0" stroke="#FFF" stroke-linecap="square" stroke-dasharray="none" stroke-width="5"/>
			<path id="path6526" stroke-linejoin="round" d="m-570.61,428.01c-18.258,0-33.059,14.366-33.059,32.087,0,13.411,8.4876,24.885,20.524,29.681-31.544,2.4065-20.524,39.841-31.544,61.233h88.158c-11.02-21.391,0-58.826-31.544-61.233,12.037-4.7957,20.524-16.27,20.524-29.681,0-17.721-14.801-32.087-33.059-32.087z" stroke-dashoffset="0" stroke="#FFF" stroke-linecap="square" stroke-dasharray="none" stroke-width="7"/>
			<path id="path6528" stroke-linejoin="round" d="m-409.96,489.86a29.209,28.35,0,0,1,-58.418,0,29.209,28.35,0,1,1,58.418,0z" stroke-dashoffset="0" stroke="#FFF" stroke-linecap="square" stroke-dasharray="none" stroke-width="7"/>
			<path id="path6530" stroke-linejoin="round" d="m-672.84,489.86a29.209,28.35,0,0,1,-58.418,0,29.209,28.35,0,1,1,58.418,0z" stroke-dashoffset="0" stroke="#FFF" stroke-linecap="square" stroke-dasharray="none" stroke-width="7"/>
			<path id="path6555" stroke-linejoin="miter" d="m-789.01,630.03h432" stroke="#FFF" stroke-linecap="butt" stroke-dasharray="none" stroke-width="6"/>
			<path id="path6557" stroke-linejoin="miter" d="m-813.01,630.03h480" stroke="#FFF" stroke-linecap="butt" stroke-dasharray="none" stroke-width="6"/>
			<path id="path6561" stroke-linejoin="miter" d="m-813.01,654.03h480" stroke="#FFF" stroke-linecap="butt" stroke-dasharray="none" stroke-width="6"/>
			<path id="path6563" stroke-linejoin="miter" d="m-813.01,678.03h480" stroke="#FFF" stroke-linecap="butt" stroke-dasharray="none" stroke-width="6"/>
			<path id="path6565" stroke-linejoin="miter" d="m-813.01,702.03h480" stroke="#FFF" stroke-linecap="butt" stroke-dasharray="none" stroke-width="6"/>
		</g>
	</g>
</svg>
