<!-- Created with Inkscape (http://www.inkscape.org/) -->
<svg id="svg3866" xmlns:rdf="http://www.w3.org/1999/02/22-rdf-syntax-ns#" xmlns="http://www.w3.org/2000/svg" viewBox="0 0 400 400" version="1.1" xmlns:cc="http://creativecommons.org/ns#" xmlns:dc="http://purl.org/dc/elements/1.1/">
	<metadata id="metadata3871">
		<rdf:RDF>
			<cc:Work rdf:about="">
				<dc:format>image/svg+xml</dc:format>
				<dc:type rdf:resource="http://purl.org/dc/dcmitype/StillImage"/>
				<dc:title/>
			</cc:Work>
		</rdf:RDF>
	</metadata>
	<g id="layer1" transform="translate(0,-652.36218)">
		<g id="g4829" stroke-miterlimit="4" transform="matrix(0.43478261,0,0,0.43478261,337.90778,547.65388)">
			<path id="path6647" d="M960,500c0,254.05-205.95,460-460,460s-460-205.95-460-460,205.95-460,460-460,460,205.95,460,460z" transform="translate(-817.1879,200.82909)" stroke-width="0" fill="#90b12f"/>
			<rect id="rect6770" stroke-linejoin="round" stroke-dasharray="none" stroke-dashoffset="0" height="520" width="440" stroke="#333" stroke-linecap="square" y="440.83" x="-537.19" stroke-width="10" fill="#FFF"/>
			<g id="g6822" transform="translate(-2802.0058,118.46689)" stroke="#333" stroke-dasharray="none" fill="#333">
				<path id="path6774" stroke-linejoin="miter" d="m2420,492.36,179.89,0" stroke-linecap="round" stroke-width="9.48402882"/>
				<path id="path6776" stroke-linejoin="miter" d="m2420,612.36,179.89,0" stroke-linecap="round" stroke-width="9.48402882"/>
				<path id="path6786" stroke-linejoin="miter" d="m2420,552.36,179.89,0" stroke-linecap="round" stroke-width="9.48402882"/>
				<path id="path6788" stroke-linejoin="miter" d="m2420,672.36,179.89,0" stroke-linecap="round" stroke-width="9.48402882"/>
				<path id="path6814" stroke-linejoin="round" d="m2430,5440c0,5.5228-4.4772,10-10,10s-10-4.4772-10-10,4.4772-10,10-10,10,4.4772,10,10z" transform="translate(-40,-4947.6378)" stroke-dashoffset="0" stroke-linecap="square" stroke-width="10"/>
				<path id="path6816" stroke-linejoin="round" d="m2430,5440c0,5.5228-4.4772,10-10,10s-10-4.4772-10-10,4.4772-10,10-10,10,4.4772,10,10z" transform="translate(-40,-4887.6378)" stroke-dashoffset="0" stroke-linecap="square" stroke-width="10"/>
				<path id="path6818" stroke-linejoin="round" d="m2430,5440c0,5.5228-4.4772,10-10,10s-10-4.4772-10-10,4.4772-10,10-10,10,4.4772,10,10z" transform="translate(-40,-4827.6378)" stroke-dashoffset="0" stroke-linecap="square" stroke-width="10"/>
				<path id="path6820" stroke-linejoin="round" d="m2430,5440c0,5.5228-4.4772,10-10,10s-10-4.4772-10-10,4.4772-10,10-10,10,4.4772,10,10z" transform="translate(-40,-4767.6378)" stroke-dashoffset="0" stroke-linecap="square" stroke-width="10"/>
			</g>
		</g>
	</g>
</svg>
