<!-- Created with Inkscape (http://www.inkscape.org/) -->
<svg id="svg3866" xmlns:rdf="http://www.w3.org/1999/02/22-rdf-syntax-ns#" xmlns="http://www.w3.org/2000/svg" viewBox="0 0 400 400" version="1.1" xmlns:cc="http://creativecommons.org/ns#" xmlns:dc="http://purl.org/dc/elements/1.1/">
	<metadata id="metadata3871">
		<rdf:RDF>
			<cc:Work rdf:about="">
				<dc:format>image/svg+xml</dc:format>
				<dc:type rdf:resource="http://purl.org/dc/dcmitype/StillImage"/>
				<dc:title/>
			</cc:Work>
		</rdf:RDF>
	</metadata>
	<g id="layer1" transform="translate(0,-652.36218)">
		<g id="g4704" stroke-miterlimit="4" transform="matrix(0.43478261,0,0,0.43478261,260.60915,555.55942)">
			<path id="path6645" d="M960,500c0,254.05-205.95,460-460,460s-460-205.95-460-460,205.95-460,460-460,460,205.95,460,460z" transform="translate(-639.40105,182.64635)" stroke-width="0" fill="#90b12f"/>
			<path id="path6713" stroke-linejoin="round" d="m120,5000c0,110.46-89.543,200-200,200s-200-89.543-200-200,89.543-200,200-200,200,89.543,200,200z" fill-opacity="0" transform="matrix(1.3,0,0,1.3,-35.401051,-5817.3536)" stroke-dashoffset="0" stroke="#333" stroke-linecap="square" stroke-dasharray="none" stroke-width="7.69230747"/>
			<path id="path6760" stroke-linejoin="round" d="m-299.32,364.49c-29.014,0-52.535,22.829-52.535,50.99,0,21.312,13.488,39.545,32.616,47.166-50.127,3.8243-32.616,63.312-50.127,97.306h140.09c-17.512-33.993,0-93.482-50.127-97.306,19.128-7.6208,32.616-25.854,32.616-47.166,0-28.161-23.521-50.99-52.535-50.99z" stroke-opacity="0.94117647" stroke-dashoffset="0" stroke="#90b12f" stroke-linecap="square" stroke-dasharray="none" stroke-width="50" fill="#000"/>
			<path id="path6711" stroke-linejoin="round" d="m-299.32,364.49c-29.014,0-52.535,22.829-52.535,50.99,0,21.312,13.488,39.545,32.616,47.166-50.127,3.8243-32.616,63.312-50.127,97.306h140.09c-17.512-33.993,0-93.482-50.127-97.306,19.128-7.6208,32.616-25.854,32.616-47.166,0-28.161-23.521-50.99-52.535-50.99z" stroke-dashoffset="0" stroke="#333" stroke-linecap="square" stroke-dasharray="none" stroke-width="10" fill="#FFF"/>
			<path id="path6762" stroke-linejoin="round" d="m50.552,427.18c-29.014,0-52.535,22.829-52.535,50.99,0,21.311,13.488,39.545,32.616,47.166-50.127,3.8243-32.616,63.313-50.127,97.306h140.09c-17.512-33.993,0-93.482-50.127-97.306,19.128-7.6207,32.616-25.854,32.616-47.166,0-28.161-23.521-50.99-52.535-50.99z" stroke-opacity="0.94117647" stroke-dashoffset="0" stroke="#90b12f" stroke-linecap="square" stroke-dasharray="none" stroke-width="50" fill="#000"/>
			<path id="path6764" stroke-linejoin="round" d="m50.552,427.18c-29.014,0-52.535,22.829-52.535,50.99,0,21.311,13.488,39.545,32.616,47.166-50.127,3.8243-32.616,63.313-50.127,97.306h140.09c-17.512-33.993,0-93.482-50.127-97.306,19.128-7.6207,32.616-25.854,32.616-47.166,0-28.161-23.521-50.99-52.535-50.99z" stroke-dashoffset="0" stroke="#333" stroke-linecap="square" stroke-dasharray="none" stroke-width="10" fill="#FFF"/>
			<path id="path6766" stroke-linejoin="round" d="m-139.32,804.49c-29.014,0-52.535,22.829-52.535,50.99,0,21.312,13.488,39.545,32.616,47.166-50.127,3.8243-32.616,63.312-50.127,97.306h140.09c-17.512-33.993,0-93.482-50.127-97.306,19.128-7.6208,32.615-25.854,32.615-47.166,0-28.161-23.521-50.99-52.535-50.99z" stroke-opacity="0.94117647" stroke-dashoffset="0" stroke="#90b12f" stroke-linecap="square" stroke-dasharray="none" stroke-width="50" fill="#000"/>
			<path id="path6768" stroke-linejoin="round" d="m-139.32,804.49c-29.014,0-52.535,22.829-52.535,50.99,0,21.312,13.488,39.545,32.616,47.166-50.127,3.8243-32.616,63.312-50.127,97.306h140.09c-17.512-33.993,0-93.482-50.127-97.306,19.128-7.6208,32.615-25.854,32.615-47.166,0-28.161-23.521-50.99-52.535-50.99z" stroke-dashoffset="0" stroke="#333" stroke-linecap="square" stroke-dasharray="none" stroke-width="10" fill="#FFF"/>
		</g>
	</g>
</svg>
