<!-- Created with Inkscape (http://www.inkscape.org/) -->
<svg id="svg3866" xmlns:rdf="http://www.w3.org/1999/02/22-rdf-syntax-ns#" xmlns="http://www.w3.org/2000/svg" viewBox="0 0 400 400" version="1.1" xmlns:cc="http://creativecommons.org/ns#" xmlns:dc="http://purl.org/dc/elements/1.1/">
	<metadata id="metadata3871">
		<rdf:RDF>
			<cc:Work rdf:about="">
				<dc:format>image/svg+xml</dc:format>
				<dc:type rdf:resource="http://purl.org/dc/dcmitype/StillImage"/>
				<dc:title/>
			</cc:Work>
		</rdf:RDF>
	</metadata>
	<g id="layer1" transform="translate(0,-652.36218)">
		<g id="g5222" stroke-miterlimit="4" transform="matrix(0.43478261,0,0,0.43478261,-72.301992,369.33999)">
			<path id="path6210" stroke-linejoin="round" d="m2260,2410c0,16.568-13.432,30-30,30s-30-13.432-30-30,13.432-30,30-30,30,13.432,30,30z" fill-opacity="0" transform="matrix(0.92857143,0,0,0.92857143,-1589.1704,-946.90607)" stroke-dashoffset="0" stroke="#FFF" stroke-linecap="square" stroke-dasharray="none" stroke-width="5"/>
			<rect id="rect6212" ry="34.667" height="69.333" width="520" y="1256.3" x="366.4" stroke-width="0" fill="#000"/>
			<path id="path6045" d="M960,500c0,254.05-205.95,460-460,460s-460-205.95-460-460,205.95-460,460-460,460,205.95,460,460z" transform="translate(126.29458,610.95103)" stroke-width="0" fill="#90b12f"/>
			<rect id="rect5656-2" stroke-linejoin="round" stroke-dasharray="none" stroke-dashoffset="0" height="285.48" width="241.56" stroke="#333" stroke-linecap="square" y="910.95" x="508.49" stroke-width="10" fill="#FFF"/>
			<path id="path5658-2" stroke-linejoin="miter" d="m585.35,1036.9,120.78-32.363" stroke="#333" stroke-linecap="round" stroke-dasharray="none" stroke-width="7" fill="#FFF"/>
			<path id="path5660-5" stroke-linejoin="round" d="m360,380c0,11.046-8.9543,20-20,20s-20-8.9543-20-20,8.9543-20,20-20,20,8.9543,20,20z" fill-opacity="0.94117647" transform="matrix(0.54899995,0,0,0.54899995,354.77468,779.19103)" stroke-dashoffset="0" stroke="#333" stroke-linecap="round" stroke-dasharray="none" stroke-width="9.10746861" fill="#90b12f"/>
			<path id="path5662-8" stroke-linejoin="round" d="m360,640c0,11.046-8.9543,20-20,20s-20-8.9543-20-20,8.9543-20,20-20,20,8.9543,20,20z" fill-opacity="0.94117647" transform="matrix(0.54899995,0,0,0.54899995,354.77468,768.21103)" stroke-dashoffset="0" stroke="#333" stroke-linecap="round" stroke-dasharray="none" stroke-width="9.10746861" fill="#90b12f"/>
			<path id="path5664-4" stroke-linejoin="miter" d="m585.35,1004,120.78-32.363" stroke="#333" stroke-linecap="round" stroke-dasharray="none" stroke-width="7" fill="#FFF"/>
			<path id="path5666-7" stroke-linejoin="miter" d="m541.43,987.81-54.9,0" stroke="#333" stroke-linecap="round" stroke-dasharray="none" stroke-width="5" fill="#FFF"/>
			<path id="path5668-2" stroke-linejoin="miter" d="m541.43,1119.6-54.9,0" stroke="#333" stroke-linecap="round" stroke-dasharray="none" stroke-width="5" fill="#FFF"/>
			<path id="path5672-2" stroke-linejoin="miter" d="m766.05,926.43,0,250" stroke="#333" stroke-linecap="round" stroke-dasharray="none" stroke-width="5" fill="#FFF"/>
			<path id="path5822-2" stroke-linejoin="miter" d="m579.52,1129.5c-5.3915-14.459,11.618-50.57,14.365-44.37,4.0518,9.1455,2.0395,38.734,6.0485,47.783,1.0698,2.4145,2.7833-49.761,6.0485-46.076,5.1804,5.8463,4.8286,44.37,14.365,44.37,1.6848,0,3.2015-43.969,6.0485-37.544,3.19,7.2001-0.878,29.727,4.5364,35.837,7.0422,7.9475,9.5539-53.523,15.121-40.957,2.6238,5.9223,0.9325,27.702,3.7804,34.13,0.1955,0.441,3.0243-21.56,3.0243-18.772,0,7.9517,0.4556,20.478,4.5363,20.478,12.327,0,13.734-8.2985,32.003,3.8814" stroke="#333" stroke-linecap="butt" stroke-dasharray="none" stroke-width="4" fill="none"/>
			<path id="path5826-7" stroke-linejoin="miter" d="m689.4,1110c5.7736,9.416,18.27,18.27,18.27,30.45" stroke="#333" stroke-linecap="butt" stroke-dasharray="none" stroke-width="4" fill="none"/>
			<path id="path5828-5" stroke-linejoin="miter" d="m689.4,1140.5c0.7737-7.1468,14.554-27.963,24.36-18.27" stroke="#333" stroke-linecap="butt" stroke-dasharray="none" stroke-width="4" fill="none"/>
			<rect id="rect6198" stroke-linejoin="round" stroke-dasharray="10, 20" stroke-dashoffset="0" ry="40" height="80" width="600" stroke="#333" stroke-linecap="square" y="1251" x="326.4" stroke-width="10" fill="#FFF"/>
			<path id="path6200" stroke-linejoin="round" d="m2260,2410c0,16.568-13.432,30-30,30s-30-13.432-30-30,13.432-30,30-30,30,13.432,30,30z" transform="matrix(0.73145781,0,0,0.73145781,-1260.7499,-471.86227)" stroke-dashoffset="0" stroke="#FFF" stroke-linecap="square" stroke-dasharray="none" stroke-width="5.38461542" fill="#333"/>
			<path id="path6202" stroke-linejoin="round" d="m2260,2410c0,16.568-13.432,30-30,30s-30-13.432-30-30,13.432-30,30-30,30,13.432,30,30z" transform="matrix(0.73145781,0,0,0.73145781,-750.69362,-471.86227)" stroke-dashoffset="0" stroke="#FFF" stroke-linecap="square" stroke-dasharray="none" stroke-width="5.46853161" fill="#333"/>
			<path id="path6204" stroke-linejoin="round" d="m2260,2410c0,16.568-13.432,30-30,30s-30-13.432-30-30,13.432-30,30-30,30,13.432,30,30z" transform="matrix(0.73145781,0,0,0.73145781,-852.70472,-471.86227)" stroke-dashoffset="0" stroke="#FFF" stroke-linecap="square" stroke-dasharray="none" stroke-width="5.46853161" fill="#333"/>
			<path id="path6206" stroke-linejoin="round" d="m2260,2410c0,16.568-13.432,30-30,30s-30-13.432-30-30,13.432-30,30-30,30,13.432,30,30z" transform="matrix(0.73145781,0,0,0.73145781,-954.71632,-471.86227)" stroke-dashoffset="0" stroke="#FFF" stroke-linecap="square" stroke-dasharray="none" stroke-width="5.46853161" fill="#333"/>
			<path id="path6208" stroke-linejoin="round" d="m2260,2410c0,16.568-13.432,30-30,30s-30-13.432-30-30,13.432-30,30-30,30,13.432,30,30z" transform="matrix(0.73145781,0,0,0.73145781,-1056.7274,-471.86227)" stroke-dashoffset="0" stroke="#FFF" stroke-linecap="square" stroke-dasharray="none" stroke-width="5.46853161" fill="#333"/>
			<path id="path6220" stroke-linejoin="round" d="m2260,2410c0,16.568-13.432,30-30,30s-30-13.432-30-30,13.432-30,30-30,30,13.432,30,30z" transform="matrix(0.73145781,0,0,0.73145781,-1158.7387,-471.86227)" stroke-dashoffset="0" stroke="#FFF" stroke-linecap="square" stroke-dasharray="none" stroke-width="5.46853161" fill="#333"/>
		</g>
	</g>
</svg>
