<!-- Created with Inkscape (http://www.inkscape.org/) -->
<svg id="svg3866" xmlns:rdf="http://www.w3.org/1999/02/22-rdf-syntax-ns#" xmlns="http://www.w3.org/2000/svg" viewBox="0 0 400 400" version="1.1" xmlns:cc="http://creativecommons.org/ns#" xmlns:dc="http://purl.org/dc/elements/1.1/">
	<metadata id="metadata3871">
		<rdf:RDF>
			<cc:Work rdf:about="">
				<dc:format>image/svg+xml</dc:format>
				<dc:type rdf:resource="http://purl.org/dc/dcmitype/StillImage"/>
				<dc:title/>
			</cc:Work>
		</rdf:RDF>
	</metadata>
	<g id="layer1" transform="translate(0,-652.36218)">
		<g id="g4404" stroke-miterlimit="4" transform="matrix(0.43478261,0,0,0.43478261,143.78281,521.30207)">
			<path id="path5526" d="M960,500c0,254.05-205.95,460-460,460s-460-205.95-460-460,205.95-460,460-460,460,205.95,460,460z" transform="translate(-370.70047,261.43825)" stroke-width="0" fill="#90b12f"/>
			<rect id="rect5528" stroke-linejoin="round" stroke-dasharray="10, 30" fill-opacity="0.94118" stroke-dashoffset="0" height="520" width="440" stroke="#333" stroke-linecap="round" y="501.44" x="-90.7" stroke-width="10" fill="#FFF"/>
			<path id="path5538" stroke-linejoin="round" d="m360,380c0,11.046-8.9543,20-20,20s-20-8.9543-20-20,8.9543-20,20-20,20,8.9543,20,20z" fill-opacity="0.94117647" transform="translate(-370.70047,261.43825)" stroke-dashoffset="0" stroke="#333" stroke-linecap="round" stroke-dasharray="none" stroke-width="10" fill="#90b12f"/>
			<path id="path5540" stroke-linejoin="round" d="m360,640c0,11.046-8.9543,20-20,20s-20-8.9543-20-20,8.9543-20,20-20,20,8.9543,20,20z" fill-opacity="0.94117647" transform="translate(-370.70047,241.43825)" stroke-dashoffset="0" stroke="#333" stroke-linecap="round" stroke-dasharray="none" stroke-width="10" fill="#90b12f"/>
			<path id="path6222" stroke-linejoin="miter" d="m-30.7,641.44-100,0" stroke="#333" stroke-linecap="round" stroke-dasharray="none" stroke-width="10" fill="none"/>
			<path id="path6224" stroke-linejoin="miter" d="m-30.7,881.44-100,0" stroke="#333" stroke-linecap="round" stroke-dasharray="none" stroke-width="10" fill="none"/>
			<path id="path3219" stroke-linejoin="miter" d="M62.08,757.15,261.3,703.77" stroke="#333" stroke-linecap="round" stroke-dasharray="none" stroke-width="10" fill="none"/>
			<path id="path3221" stroke-linejoin="miter" d="M62.08,702.82,261.3,649.44" stroke="#333" stroke-linecap="round" stroke-dasharray="none" stroke-width="10" fill="none"/>
		</g>
	</g>
</svg>
