<!-- Created with Inkscape (http://www.inkscape.org/) -->
<svg id="svg3866" xmlns:rdf="http://www.w3.org/1999/02/22-rdf-syntax-ns#" xmlns="http://www.w3.org/2000/svg" viewBox="0 0 400 400" version="1.1" xmlns:cc="http://creativecommons.org/ns#" xmlns:dc="http://purl.org/dc/elements/1.1/">
	<metadata id="metadata3871">
		<rdf:RDF>
			<cc:Work rdf:about="">
				<dc:format>image/svg+xml</dc:format>
				<dc:type rdf:resource="http://purl.org/dc/dcmitype/StillImage"/>
				<dc:title/>
			</cc:Work>
		</rdf:RDF>
	</metadata>
	<g id="layer1" transform="translate(0,-652.36218)">
		<g id="g4122" stroke-miterlimit="4" transform="matrix(0.43478261,0,0,0.43478261,155.20193,551.16745)">
			<path id="path5351" d="M960,500c0,254.05-205.95,460-460,460s-460-205.95-460-460,205.95-460,460-460,460,205.95,460,460z" transform="translate(-396.96444,192.74787)" stroke-width="0" fill="#90b12f"/>
			<rect id="rect5353" stroke-linejoin="round" stroke-dasharray="none" stroke-dashoffset="0" height="520" width="440" stroke="#333" stroke-linecap="square" y="432.75" x="-116.96" stroke-width="10" fill="#FFF"/>
			<path id="path5355" stroke-linejoin="miter" d="m23.036,662.22,220-58.949" stroke="#333" stroke-linecap="round" stroke-dasharray="none" stroke-width="10.48808861" fill="none"/>
			<path id="path5357" stroke-linejoin="round" d="m360,380c0,11.046-8.9543,20-20,20s-20-8.9543-20-20,8.9543-20,20-20,20,8.9543,20,20z" fill-opacity="0.94117647" transform="translate(-396.96444,192.74787)" stroke-dashoffset="0" stroke="#333" stroke-linecap="round" stroke-dasharray="none" stroke-width="10" fill="#90b12f"/>
			<path id="path5359" stroke-linejoin="round" d="m360,640c0,11.046-8.9543,20-20,20s-20-8.9543-20-20,8.9543-20,20-20,20,8.9543,20,20z" fill-opacity="0.94117647" transform="translate(-396.96444,172.74787)" stroke-dashoffset="0" stroke="#333" stroke-linecap="round" stroke-dasharray="none" stroke-width="10" fill="#90b12f"/>
			<path id="path5361" stroke-linejoin="miter" d="m23.036,602.22,220-58.949" stroke="#333" stroke-linecap="round" stroke-dasharray="none" stroke-width="10.48808861" fill="none"/>
			<path id="path5363" stroke-linejoin="miter" d="m-56.964,572.75-100,0" stroke="#333" stroke-linecap="round" stroke-dasharray="none" stroke-width="10" fill="none"/>
			<path id="path5365" stroke-linejoin="miter" d="m-56.964,812.75-100,0" stroke="#333" stroke-linecap="round" stroke-dasharray="none" stroke-width="10" fill="none"/>
			<path id="path5367" stroke-linejoin="miter" d="m343.04,452.75,0,480" stroke="#333" stroke-linecap="round" stroke-dasharray="none" stroke-width="10" fill="none"/>
			<path id="path5369" stroke-linejoin="miter" d="m363.04,472.75,0,440" stroke="#333" stroke-linecap="round" stroke-dasharray="none" stroke-width="9.57427025" fill="none"/>
		</g>
	</g>
</svg>
