<!-- Created with Inkscape (http://www.inkscape.org/) -->
<svg id="svg3866" xmlns:rdf="http://www.w3.org/1999/02/22-rdf-syntax-ns#" xmlns="http://www.w3.org/2000/svg" viewBox="0 0 400 400" version="1.1" xmlns:cc="http://creativecommons.org/ns#" xmlns:dc="http://purl.org/dc/elements/1.1/">
	<metadata id="metadata3871">
		<rdf:RDF>
			<cc:Work rdf:about="">
				<dc:format>image/svg+xml</dc:format>
				<dc:type rdf:resource="http://purl.org/dc/dcmitype/StillImage"/>
				<dc:title/>
			</cc:Work>
		</rdf:RDF>
	</metadata>
	<g id="layer1" transform="translate(0,-652.36218)">
		<g id="g4616" stroke-miterlimit="4" transform="matrix(0.43478261,0,0,0.43478261,-74.93717,355.2857)">
			<path id="path5564" d="M960,500c0,254.05-205.95,460-460,460s-460-205.95-460-460,205.95-460,460-460,460,205.95,460,460z" transform="translate(132.35549,643.27591)" stroke-width="0" fill="#90b12f"/>
			<rect id="rect5694" stroke-linejoin="round" stroke-dasharray="7, 21" stroke-dashoffset="0" height="205.48" width="173.87" stroke="#333" stroke-linecap="square" y="917.8" x="553.32" stroke-width="7" fill="#FFF"/>
			<path id="path5696" stroke-linejoin="miter" d="m608.65,1008.5,86.934-23.294" stroke="#333" stroke-linecap="round" stroke-dasharray="none" stroke-width="7" fill="none"/>
			<path id="path5698" stroke-linejoin="round" d="m360,380c0,11.046-8.9543,20-20,20s-20-8.9543-20-20,8.9543-20,20-20,20,8.9543,20,20z" fill-opacity="0.94117647" transform="matrix(0.39515379,0,0,0.39515379,442.68179,822.95901)" stroke-dashoffset="0" stroke="#333" stroke-linecap="round" stroke-dasharray="none" stroke-width="12.65330124" fill="#90b12f"/>
			<path id="path5700" stroke-linejoin="round" d="m360,640c0,11.046-8.9543,20-20,20s-20-8.9543-20-20,8.9543-20,20-20,20,8.9543,20,20z" fill-opacity="0.94117647" transform="matrix(0.39515379,0,0,0.39515379,442.68179,815.05591)" stroke-dashoffset="0" stroke="#333" stroke-linecap="round" stroke-dasharray="none" stroke-width="12.65330124" fill="#90b12f"/>
			<path id="path5702" stroke-linejoin="miter" d="m608.65,984.76,86.934-23.294" stroke="#333" stroke-linecap="round" stroke-dasharray="none" stroke-width="7" fill="none"/>
			<path id="path5704" stroke-linejoin="miter" d="m577.03,973.12-39.515,0" stroke="#333" stroke-linecap="round" stroke-dasharray="none" stroke-width="5" fill="none"/>
			<path id="path5706" stroke-linejoin="miter" d="m577.03,1068-39.515,0" stroke="#333" stroke-linecap="round" stroke-dasharray="none" stroke-width="5" fill="none"/>
			<rect id="rect5721" stroke-linejoin="round" stroke-dasharray="7, 21" stroke-dashoffset="0" height="205.48" width="173.87" stroke="#333" stroke-linecap="square" y="957.8" x="798.49" stroke-width="7" fill="#FFF"/>
			<path id="path5723" stroke-linejoin="miter" d="m853.81,1048.5,86.934-23.294" stroke="#333" stroke-linecap="round" stroke-dasharray="none" stroke-width="7" fill="none"/>
			<path id="path5725" stroke-linejoin="round" d="m360,380c0,11.046-8.9543,20-20,20s-20-8.9543-20-20,8.9543-20,20-20,20,8.9543,20,20z" fill-opacity="0.94117647" transform="matrix(0.39515379,0,0,0.39515379,687.84499,862.95901)" stroke-dashoffset="0" stroke="#333" stroke-linecap="round" stroke-dasharray="none" stroke-width="12.65330124" fill="#90b12f"/>
			<path id="path5727" stroke-linejoin="round" d="m360,640c0,11.046-8.9543,20-20,20s-20-8.9543-20-20,8.9543-20,20-20,20,8.9543,20,20z" fill-opacity="0.94117647" transform="matrix(0.39515379,0,0,0.39515379,687.84499,855.05591)" stroke-dashoffset="0" stroke="#333" stroke-linecap="round" stroke-dasharray="none" stroke-width="12.65330124" fill="#90b12f"/>
			<path id="path5729" stroke-linejoin="miter" d="m853.81,1024.8,86.934-23.294" stroke="#333" stroke-linecap="round" stroke-dasharray="none" stroke-width="7" fill="none"/>
			<path id="path5731" stroke-linejoin="miter" d="m822.2,1013.1-39.515,0" stroke="#333" stroke-linecap="round" stroke-dasharray="none" stroke-width="5" fill="none"/>
			<path id="path5733" stroke-linejoin="miter" d="m822.2,1108-39.515,0" stroke="#333" stroke-linecap="round" stroke-dasharray="none" stroke-width="5" fill="none"/>
			<rect id="rect5737" stroke-linejoin="round" stroke-dasharray="7, 21" stroke-dashoffset="0" height="205.48" width="173.87" stroke="#333" stroke-linecap="square" y="999.8" x="316.49" stroke-width="7" fill="#FFF"/>
			<path id="path5739" stroke-linejoin="miter" d="m371.81,1090.5,86.934-23.294" stroke="#333" stroke-linecap="round" stroke-dasharray="none" stroke-width="7" fill="none"/>
			<path id="path5741" stroke-linejoin="round" d="m360,380c0,11.046-8.9543,20-20,20s-20-8.9543-20-20,8.9543-20,20-20,20,8.9543,20,20z" fill-opacity="0.94117647" transform="matrix(0.39515379,0,0,0.39515379,205.84499,904.95901)" stroke-dashoffset="0" stroke="#333" stroke-linecap="round" stroke-dasharray="none" stroke-width="12.65330124" fill="#90b12f"/>
			<path id="path5743" stroke-linejoin="round" d="m360,640c0,11.046-8.9543,20-20,20s-20-8.9543-20-20,8.9543-20,20-20,20,8.9543,20,20z" fill-opacity="0.94117647" transform="matrix(0.39515379,0,0,0.39515379,205.84499,897.05591)" stroke-dashoffset="0" stroke="#333" stroke-linecap="round" stroke-dasharray="none" stroke-width="12.65330124" fill="#90b12f"/>
			<path id="path5745" stroke-linejoin="miter" d="m371.81,1066.8,86.934-23.294" stroke="#333" stroke-linecap="round" stroke-dasharray="none" stroke-width="7" fill="none"/>
			<path id="path5747" stroke-linejoin="miter" d="m340.2,1055.1-39.515,0" stroke="#333" stroke-linecap="round" stroke-dasharray="none" stroke-width="5" fill="none"/>
			<path id="path5749" stroke-linejoin="miter" d="m340.2,1150-39.515,0" stroke="#333" stroke-linecap="round" stroke-dasharray="none" stroke-width="5" fill="none"/>
			<path id="path5751" d="m395.52,1243.3-20,40,40,0z" stroke-width="0" fill="#333"/>
			<path id="path5753" stroke-linejoin="miter" d="m395.52,1263.3,0,140" stroke="#333" stroke-linecap="butt" stroke-dasharray="none" stroke-width="7" fill="#FFF"/>
			<path id="path5755" d="m632.36,1163.3-20,40,40,0z" stroke-width="0" fill="#333"/>
			<path id="path5757" stroke-linejoin="miter" d="m632.36,1183.3,0,220" stroke="#333" stroke-linecap="butt" stroke-dasharray="none" stroke-width="7" fill="#FFF"/>
			<path id="path5759" d="m877.52,1203.3-20,40,40,0z" stroke-width="0" fill="#333"/>
			<path id="path5761" stroke-linejoin="miter" d="m877.52,1223.3,0,180" stroke="#333" stroke-linecap="butt" stroke-dasharray="none" stroke-width="7" fill="#FFF"/>
		</g>
	</g>
</svg>
