<!-- Created with Inkscape (http://www.inkscape.org/) -->
<svg id="svg3866" xmlns:rdf="http://www.w3.org/1999/02/22-rdf-syntax-ns#" xmlns="http://www.w3.org/2000/svg" viewBox="0 0 400 400" version="1.1" xmlns:cc="http://creativecommons.org/ns#" xmlns:dc="http://purl.org/dc/elements/1.1/">
	<metadata id="metadata3871">
		<rdf:RDF>
			<cc:Work rdf:about="">
				<dc:format>image/svg+xml</dc:format>
				<dc:type rdf:resource="http://purl.org/dc/dcmitype/StillImage"/>
				<dc:title/>
			</cc:Work>
		</rdf:RDF>
	</metadata>
	<g id="layer1" transform="translate(0,-652.36218)">
		<g id="g4177" stroke-miterlimit="4" transform="matrix(0.43478261,0,0,0.43478261,191.21607,538.86994)">
			<path id="path6368" d="M960,500c0,254.05-205.95,460-460,460s-460-205.95-460-460,205.95-460,460-460,460,205.95,460,460z" transform="translate(-479.79695,221.03215)" stroke-width="0" fill="#90b12f"/>
			<path id="path6498" stroke-linejoin="miter" d="m20.203,942.75c-51.238-69.121-95.872-144.85-126.69-234.38-38.008-145.7,49.726-209.04,126.69-209.04,76.968,0,164.7,63.347,126.69,209.04-26.764,85.861-72.736,162.12-126.69,234.38z" stroke="#333" stroke-linecap="butt" stroke-dasharray="none" stroke-width="10" fill="#FFF"/>
			<path id="path6501" stroke-linejoin="round" d="m540,3300c0,33.137-26.863,60-60,60s-60-26.863-60-60,26.863-60,60-60,60,26.863,60,60z" fill-opacity="0.94117647" transform="matrix(0.63346937,0,0,0.63346937,-283.86225,-1460.6363)" stroke-dashoffset="0" stroke="#333" stroke-linecap="square" stroke-dasharray="none" stroke-width="15.78608322" fill="#90b12f"/>
		</g>
	</g>
</svg>
