<!-- Created with Inkscape (http://www.inkscape.org/) -->
<svg id="svg3866" xmlns:rdf="http://www.w3.org/1999/02/22-rdf-syntax-ns#" xmlns="http://www.w3.org/2000/svg" viewBox="0 0 400 400" version="1.1" xmlns:cc="http://creativecommons.org/ns#" xmlns:dc="http://purl.org/dc/elements/1.1/">
	<metadata id="metadata3871">
		<rdf:RDF>
			<cc:Work rdf:about="">
				<dc:format>image/svg+xml</dc:format>
				<dc:type rdf:resource="http://purl.org/dc/dcmitype/StillImage"/>
				<dc:title/>
			</cc:Work>
		</rdf:RDF>
	</metadata>
	<g id="layer1" transform="translate(0,-652.36218)">
		<g id="g4332" stroke-miterlimit="4" transform="matrix(0.43478261,0,0,0.43478261,103.37671,517.7885)">
			<path id="path6456" d="M960,500c0,254.05-205.95,460-460,460s-460-205.95-460-460,205.95-460,460-460,460,205.95,460,460z" transform="translate(-277.76644,269.51947)" stroke-width="0" fill="#90b12f"/>
			<rect id="rect6603" stroke-linejoin="round" stroke-dasharray="none" stroke-dashoffset="0" transform="matrix(0,1,-1,0,0,0)" height="520" width="440" stroke="#333" stroke-linecap="square" y="-482.23" x="569.52" stroke-width="10" fill="#FFF"/>
			<path id="path6607" stroke-linejoin="round" d="m360,380c0,11.046-8.9543,20-20,20s-20-8.9543-20-20,8.9543-20,20-20,20,8.9543,20,20z" fill-opacity="0.94117647" transform="matrix(0,1,-1,0,722.23366,289.51947)" stroke-dashoffset="0" stroke="#333" stroke-linecap="round" stroke-dasharray="none" stroke-width="10" fill="#90b12f"/>
			<path id="path6609" stroke-linejoin="round" d="m360,640c0,11.046-8.9543,20-20,20s-20-8.9543-20-20,8.9543-20,20-20,20,8.9543,20,20z" fill-opacity="0.94117647" transform="matrix(0,1,-1,0,742.23366,289.51947)" stroke-dashoffset="0" stroke="#333" stroke-linecap="round" stroke-dasharray="none" stroke-width="10" fill="#90b12f"/>
			<path id="path6613" stroke-linejoin="miter" d="m342.23,629.52,0-100" stroke="#333" stroke-linecap="round" stroke-dasharray="none" stroke-width="10" fill="#FFF"/>
			<path id="path6615" stroke-linejoin="miter" d="m102.23,629.52,0-100" stroke="#333" stroke-linecap="round" stroke-dasharray="none" stroke-width="10" fill="#FFF"/>
			<path id="path6629" stroke-linejoin="miter" d="m22.34,769.52,400,0" stroke="#333" stroke-linecap="butt" stroke-dasharray="none" stroke-width="7" fill="#FFF"/>
			<path id="path6631" stroke-linejoin="miter" d="m22.34,829.52,400,0" stroke="#333" stroke-linecap="butt" stroke-dasharray="none" stroke-width="7" fill="#FFF"/>
			<path id="path6633" stroke-linejoin="miter" d="m22.34,889.52,400,0" stroke="#333" stroke-linecap="butt" stroke-dasharray="none" stroke-width="7.18184853" fill="#FFF"/>
			<path id="path6637" stroke-linejoin="miter" d="m102.34,709.52,0,240" stroke="#333" stroke-linecap="butt" stroke-dasharray="none" stroke-width="7" fill="none"/>
			<path id="path6639" stroke-linejoin="miter" d="m342.34,709.52,0,240" stroke="#333" stroke-linecap="butt" stroke-dasharray="none" stroke-width="7" fill="none"/>
			<path id="path6641" stroke-linejoin="miter" d="m222.34,709.52,0,240" stroke="#333" stroke-linecap="butt" stroke-dasharray="none" stroke-width="7" fill="none"/>
		</g>
	</g>
</svg>
