<!-- Created with Inkscape (http://www.inkscape.org/) -->
<svg id="svg3866" xmlns:rdf="http://www.w3.org/1999/02/22-rdf-syntax-ns#" xmlns="http://www.w3.org/2000/svg" viewBox="0 0 400 400" version="1.1" xmlns:cc="http://creativecommons.org/ns#" xmlns:dc="http://purl.org/dc/elements/1.1/">
	<metadata id="metadata3871">
		<rdf:RDF>
			<cc:Work rdf:about="">
				<dc:format>image/svg+xml</dc:format>
				<dc:type rdf:resource="http://purl.org/dc/dcmitype/StillImage"/>
				<dc:title/>
			</cc:Work>
		</rdf:RDF>
	</metadata>
	<g id="layer1" transform="translate(0,-652.36218)">
		<g id="g3831" stroke-miterlimit="4" transform="matrix(0.43478261,0,0,0.43478261,-17.391305,1823.985)">
			<path id="path4684" d="M960,500c0,254.05-205.95,460-460,460s-460-205.95-460-460,205.95-460,460-460,460,205.95,460,460z" transform="translate(0,-2734.7324)" stroke-width="0" fill="#90b12f"/>
			<rect id="rect4686" stroke-linejoin="round" stroke-dasharray="none" stroke-dashoffset="0" height="520" width="440" stroke="#333" stroke-linecap="square" y="-2494.7" x="280" stroke-width="10" fill="#FFF"/>
			<path id="path5215" stroke-linejoin="miter" d="m420-2414.7,220,0" stroke="#333" stroke-linecap="round" stroke-dasharray="none" stroke-width="10.48808861" fill="#333"/>
			<path id="path5219" stroke-linejoin="miter" d="m420-2294.7,220,0" stroke="#333" stroke-linecap="round" stroke-dasharray="none" stroke-width="10.48808861" fill="#333"/>
			<path id="path5221" stroke-linejoin="miter" d="m420-2174.7,220,0" stroke="#333" stroke-linecap="round" stroke-dasharray="none" stroke-width="10.48808861" fill="#333"/>
			<path id="path5223" stroke-linejoin="miter" d="m420-2054.7,220,0" stroke="#333" stroke-linecap="round" stroke-dasharray="none" stroke-width="10.48808861" fill="#333"/>
			<path id="path5227" stroke-linejoin="round" d="m360,380c0,11.046-8.9543,20-20,20s-20-8.9543-20-20,8.9543-20,20-20,20,8.9543,20,20z" fill-opacity="0.94117647" transform="translate(0,-2734.7324)" stroke-dashoffset="0" stroke="#333" stroke-linecap="round" stroke-dasharray="none" stroke-width="10" fill="#90b12f"/>
			<path id="path5229" stroke-linejoin="round" d="m360,640c0,11.046-8.9543,20-20,20s-20-8.9543-20-20,8.9543-20,20-20,20,8.9543,20,20z" fill-opacity="0.94117647" transform="translate(0,-2754.7324)" stroke-dashoffset="0" stroke="#333" stroke-linecap="round" stroke-dasharray="none" stroke-width="10" fill="#90b12f"/>
			<path id="path5231" stroke-linejoin="miter" d="m420-2354.7,220,0" stroke="#333" stroke-linecap="round" stroke-dasharray="none" stroke-width="10.48808861" fill="#333"/>
			<path id="path5233" stroke-linejoin="miter" d="m420-2234.7,220,0" stroke="#333" stroke-linecap="round" stroke-dasharray="none" stroke-width="10.48808861" fill="#333"/>
			<path id="path5235" stroke-linejoin="miter" d="m420-2114.7,220,0" stroke="#333" stroke-linecap="round" stroke-dasharray="none" stroke-width="10.48808861" fill="#333"/>
		</g>
	</g>
</svg>
