<!-- Created with Inkscape (http://www.inkscape.org/) -->
<svg id="svg3866" xmlns:rdf="http://www.w3.org/1999/02/22-rdf-syntax-ns#" xmlns="http://www.w3.org/2000/svg" viewBox="0 0 400 400" version="1.1" xmlns:cc="http://creativecommons.org/ns#" xmlns:dc="http://purl.org/dc/elements/1.1/">
	<metadata id="metadata3871">
		<rdf:RDF>
			<cc:Work rdf:about="">
				<dc:format>image/svg+xml</dc:format>
				<dc:type rdf:resource="http://purl.org/dc/dcmitype/StillImage"/>
				<dc:title/>
			</cc:Work>
		</rdf:RDF>
	</metadata>
	<g id="layer1" transform="translate(0,-652.36218)">
		<g id="g4484" transform="matrix(0.43478261,0,0,0.43478261,113.03904,526.57243)">
			<path id="path5548" d="M960,500c0,254.05-205.95,460-460,460s-460-205.95-460-460,205.95-460,460-460,460,205.95,460,460z" transform="translate(-299.9898,249.31642)" stroke-miterlimit="4" stroke-width="0" fill="#90b12f"/>
			<path id="path5652" stroke-linejoin="miter" d="m-79.99,1029.3,70.833-70.833,35.417,35.417,53.75-104.58,40,80,80-160" stroke="#333" stroke-linecap="butt" stroke-miterlimit="4" stroke-dasharray="none" stroke-width="8.85416698" fill="none"/>
			<rect id="rect5656" stroke-linejoin="round" stroke-dasharray="none" stroke-dashoffset="0" height="285.48" width="241.56" stroke="#333" stroke-linecap="square" stroke-miterlimit="4" y="483.84" x="218.45" stroke-width="10" fill="#FFF"/>
			<path id="path5658" stroke-linejoin="miter" d="m295.31,609.82,120.78-32.363" stroke="#333" stroke-linecap="round" stroke-miterlimit="4" stroke-dasharray="none" stroke-width="7" fill="none"/>
			<path id="path5660" stroke-linejoin="round" d="m360,380c0,11.046-8.9543,20-20,20s-20-8.9543-20-20,8.9543-20,20-20,20,8.9543,20,20z" fill-opacity="0.94117647" transform="matrix(0.54899995,0,0,0.54899995,64.730304,352.07642)" stroke-dashoffset="0" stroke="#333" stroke-linecap="round" stroke-miterlimit="4" stroke-dasharray="none" stroke-width="9.10746861" fill="#90b12f"/>
			<path id="path5662" stroke-linejoin="round" d="m360,640c0,11.046-8.9543,20-20,20s-20-8.9543-20-20,8.9543-20,20-20,20,8.9543,20,20z" fill-opacity="0.94117647" transform="matrix(0.54899995,0,0,0.54899995,64.730304,341.09642)" stroke-dashoffset="0" stroke="#333" stroke-linecap="round" stroke-miterlimit="4" stroke-dasharray="none" stroke-width="9.10746861" fill="#90b12f"/>
			<path id="path5664" stroke-linejoin="miter" d="m295.31,576.88,120.78-32.363" stroke="#333" stroke-linecap="round" stroke-miterlimit="4" stroke-dasharray="none" stroke-width="7" fill="none"/>
			<path id="path5666" stroke-linejoin="miter" d="m251.39,560.7-54.9,0" stroke="#333" stroke-linecap="round" stroke-miterlimit="4" stroke-dasharray="none" stroke-width="5" fill="none"/>
			<path id="path5668" stroke-linejoin="miter" d="m251.39,692.46-54.9,0" stroke="#333" stroke-linecap="round" stroke-miterlimit="4" stroke-dasharray="none" stroke-width="5" fill="none"/>
			<path id="path5670" stroke-linejoin="miter" d="m166.01,823.32,40-20,0,40" stroke="#333" stroke-linecap="butt" stroke-width="1px" fill="#333"/>
			<path id="path5672" stroke-linejoin="miter" d="m476.01,499.32,0,250" stroke="#333" stroke-linecap="round" stroke-miterlimit="4" stroke-dasharray="none" stroke-width="5" fill="#FFF"/>
			<path id="path6226" stroke-linejoin="miter" d="m490.01,509.32,0,230" stroke="#333" stroke-linecap="round" stroke-miterlimit="4" stroke-dasharray="none" stroke-width="5" fill="#FFF"/>
		</g>
	</g>
</svg>
