<!-- Created with Inkscape (http://www.inkscape.org/) -->
<svg id="svg3866" xmlns:rdf="http://www.w3.org/1999/02/22-rdf-syntax-ns#" xmlns="http://www.w3.org/2000/svg" viewBox="0 0 400 400" version="1.1" xmlns:cc="http://creativecommons.org/ns#" xmlns:dc="http://purl.org/dc/elements/1.1/">
	<metadata id="metadata3871">
		<rdf:RDF>
			<cc:Work rdf:about="">
				<dc:format>image/svg+xml</dc:format>
				<dc:type rdf:resource="http://purl.org/dc/dcmitype/StillImage"/>
				<dc:title/>
			</cc:Work>
		</rdf:RDF>
	</metadata>
	<g id="layer1" transform="translate(0,-652.36218)">
		<g id="g4972" transform="matrix(0.43478261,0,0,0.43478261,-72.301992,313.12281)">
			<path id="path5918" d="M960,500c0,254.05-205.95,460-460,460s-460-205.95-460-460,205.95-460,460-460,460,205.95,460,460z" transform="translate(126.29458,740.25055)" stroke-miterlimit="4" stroke-width="0" fill="#90b12f"/>
			<rect id="rect5920" stroke-linejoin="round" stroke-dasharray="none" stroke-dashoffset="0" height="205.48" width="173.87" stroke="#333" stroke-linecap="square" stroke-miterlimit="4" y="1030.8" x="547.26" stroke-width="7" fill="#FFF"/>
			<path id="path5922" stroke-linejoin="miter" d="m602.59,1121.4,86.934-23.294" stroke="#333" stroke-linecap="round" stroke-miterlimit="4" stroke-dasharray="none" stroke-width="7" fill="none"/>
			<path id="path5924" stroke-linejoin="round" d="m360,380c0,11.046-8.9543,20-20,20s-20-8.9543-20-20,8.9543-20,20-20,20,8.9543,20,20z" fill-opacity="0.94117647" transform="matrix(0.39515379,0,0,0.39515379,436.62088,935.93365)" stroke-dashoffset="0" stroke="#333" stroke-linecap="round" stroke-miterlimit="4" stroke-dasharray="none" stroke-width="12.65330124" fill="#90b12f"/>
			<path id="path5926" stroke-linejoin="round" d="m360,640c0,11.046-8.9543,20-20,20s-20-8.9543-20-20,8.9543-20,20-20,20,8.9543,20,20z" fill-opacity="0.94117647" transform="matrix(0.39515379,0,0,0.39515379,436.62088,928.03055)" stroke-dashoffset="0" stroke="#333" stroke-linecap="round" stroke-miterlimit="4" stroke-dasharray="none" stroke-width="12.65330124" fill="#90b12f"/>
			<path id="path5928" stroke-linejoin="miter" d="m602.59,1097.7,86.934-23.294" stroke="#333" stroke-linecap="round" stroke-miterlimit="4" stroke-dasharray="none" stroke-width="7" fill="none"/>
			<path id="path5930" stroke-linejoin="miter" d="m570.97,1086.1-39.515,0" stroke="#333" stroke-linecap="round" stroke-miterlimit="4" stroke-dasharray="none" stroke-width="5" fill="none"/>
			<path id="path5932" stroke-linejoin="miter" d="m570.97,1180.9-39.515,0" stroke="#333" stroke-linecap="round" stroke-miterlimit="4" stroke-dasharray="none" stroke-width="5" fill="none"/>
			<rect id="rect5934" stroke-linejoin="round" stroke-dasharray="7, 21" stroke-dashoffset="0" height="205.48" width="173.87" stroke="#333" stroke-linecap="square" stroke-miterlimit="4" y="1108.9" x="792.43" stroke-width="7" fill="#FFF"/>
			<path id="path5936" stroke-linejoin="miter" d="m847.75,1199.5,86.934-23.294" stroke="#333" stroke-linecap="round" stroke-miterlimit="4" stroke-dasharray="none" stroke-width="7" fill="none"/>
			<path id="path5938" stroke-linejoin="round" d="m360,380c0,11.046-8.9543,20-20,20s-20-8.9543-20-20,8.9543-20,20-20,20,8.9543,20,20z" fill-opacity="0.94117647" transform="matrix(0.39515379,0,0,0.39515379,681.78408,1014.0298)" stroke-dashoffset="0" stroke="#333" stroke-linecap="round" stroke-miterlimit="4" stroke-dasharray="none" stroke-width="12.65330124" fill="#90b12f"/>
			<path id="path5940" stroke-linejoin="round" d="m360,640c0,11.046-8.9543,20-20,20s-20-8.9543-20-20,8.9543-20,20-20,20,8.9543,20,20z" fill-opacity="0.94117647" transform="matrix(0.39515379,0,0,0.39515379,681.78408,1006.1267)" stroke-dashoffset="0" stroke="#333" stroke-linecap="round" stroke-miterlimit="4" stroke-dasharray="none" stroke-width="12.65330124" fill="#90b12f"/>
			<path id="path5942" stroke-linejoin="miter" d="m847.75,1175.8,86.934-23.294" stroke="#333" stroke-linecap="round" stroke-miterlimit="4" stroke-dasharray="none" stroke-width="7" fill="none"/>
			<path id="path5944" stroke-linejoin="miter" d="m816.14,1164.2-39.515,0" stroke="#333" stroke-linecap="round" stroke-miterlimit="4" stroke-dasharray="none" stroke-width="5" fill="none"/>
			<path id="path5946" stroke-linejoin="miter" d="m816.14,1259-39.515,0" stroke="#333" stroke-linecap="round" stroke-miterlimit="4" stroke-dasharray="none" stroke-width="5" fill="none"/>
			<rect id="rect5948" stroke-linejoin="round" stroke-dasharray="7, 21" stroke-dashoffset="0" height="205.48" width="173.87" stroke="#333" stroke-linecap="square" stroke-miterlimit="4" y="1150.8" x="310.43" stroke-width="7" fill="#FFF"/>
			<path id="path5950" stroke-linejoin="miter" d="m365.75,1241.4,86.934-23.294" stroke="#333" stroke-linecap="round" stroke-miterlimit="4" stroke-dasharray="none" stroke-width="7" fill="none"/>
			<path id="path5952" stroke-linejoin="round" d="m360,380c0,11.046-8.9543,20-20,20s-20-8.9543-20-20,8.9543-20,20-20,20,8.9543,20,20z" fill-opacity="0.94117647" transform="matrix(0.39515379,0,0,0.39515379,199.78408,1055.9337)" stroke-dashoffset="0" stroke="#333" stroke-linecap="round" stroke-miterlimit="4" stroke-dasharray="none" stroke-width="12.65330124" fill="#90b12f"/>
			<path id="path5954" stroke-linejoin="round" d="m360,640c0,11.046-8.9543,20-20,20s-20-8.9543-20-20,8.9543-20,20-20,20,8.9543,20,20z" fill-opacity="0.94117647" transform="matrix(0.39515379,0,0,0.39515379,199.78408,1048.0307)" stroke-dashoffset="0" stroke="#333" stroke-linecap="round" stroke-miterlimit="4" stroke-dasharray="none" stroke-width="12.65330124" fill="#90b12f"/>
			<path id="path5956" stroke-linejoin="miter" d="m365.75,1217.7,86.934-23.294" stroke="#333" stroke-linecap="round" stroke-miterlimit="4" stroke-dasharray="none" stroke-width="7" fill="none"/>
			<path id="path5958" stroke-linejoin="miter" d="m334.14,1206.1-39.515,0" stroke="#333" stroke-linecap="round" stroke-miterlimit="4" stroke-dasharray="none" stroke-width="5" fill="none"/>
			<path id="path5960" stroke-linejoin="miter" d="m334.14,1300.9-39.515,0" stroke="#333" stroke-linecap="round" stroke-miterlimit="4" stroke-dasharray="none" stroke-width="5" fill="none"/>
			<g id="g5962" stroke-linejoin="miter" transform="translate(-1870.5422,741.88835)" stroke="#333" stroke-linecap="butt" fill="#333">
				<path id="path5964" d="m2260,652.36-20,40,40,0z" stroke-width="1px"/>
				<path id="path5966" d="m2260,1620,0,140" transform="translate(0,-947.63782)" stroke-miterlimit="4" stroke-dasharray="none" stroke-width="7"/>
			</g>
			<g id="g5968" stroke-linejoin="miter" transform="translate(-1873.7054,703.88835)" stroke="#333" stroke-linecap="butt" fill="#333">
				<path id="path5970" d="m2500,572.36-20,40,40,0z" stroke-width="1px"/>
				<path id="path5972" d="m2500,592.36,0,220" stroke-miterlimit="4" stroke-dasharray="none" stroke-width="7"/>
			</g>
			<g id="g5974" stroke-linejoin="miter" transform="translate(-1868.5422,741.98445)" stroke="#333" stroke-linecap="butt" fill="#333">
				<path id="path5976" d="m2740,612.36-20,40,40,0z" stroke-width="1px"/>
				<path id="path5978" d="m2740,632.36,0,180" stroke-miterlimit="4" stroke-dasharray="none" stroke-width="7"/>
			</g>
			<path id="rect5984" stroke-linejoin="round" d="m678.97,869.29-50,86.602-34.641-20-10,17.32,34.641,20,17.321,10,10-17.32,50-86.602-17.321-10z" stroke-dashoffset="0" stroke="#333" stroke-linecap="round" stroke-miterlimit="4" stroke-dasharray="none" stroke-width="5" fill="#333"/>
		</g>
	</g>
</svg>
