<!-- Created with Inkscape (http://www.inkscape.org/) -->
<svg id="svg3866" xmlns:rdf="http://www.w3.org/1999/02/22-rdf-syntax-ns#" xmlns="http://www.w3.org/2000/svg" viewBox="0 0 400 400" version="1.1" xmlns:cc="http://creativecommons.org/ns#" xmlns:dc="http://purl.org/dc/elements/1.1/">
	<metadata id="metadata3871">
		<rdf:RDF>
			<cc:Work rdf:about="">
				<dc:format>image/svg+xml</dc:format>
				<dc:type rdf:resource="http://purl.org/dc/dcmitype/StillImage"/>
				<dc:title/>
			</cc:Work>
		</rdf:RDF>
	</metadata>
	<g id="layer1" transform="translate(0,-652.36218)">
		<g id="g5079" stroke-miterlimit="4" transform="matrix(0.43478261,0,0,0.43478261,290.47453,487.92312)">
			<path id="path5796" d="M960,500c0,254.05-205.95,460-460,460s-460-205.95-460-460,205.95-460,460-460,460,205.95,460,460z" transform="translate(-708.09142,338.20984)" stroke-width="0" fill="#90b12f"/>
			<rect id="rect5353-7" stroke-linejoin="round" stroke-dasharray="none" stroke-dashoffset="0" height="520" width="440" stroke="#333" stroke-linecap="square" y="578.21" x="-427.98" stroke-width="10" fill="#FFF"/>
			<path id="path5355-1" stroke-linejoin="miter" d="m-287.99,807.68,220-58.949" stroke="#333" stroke-linecap="round" stroke-dasharray="none" stroke-width="10.48808861" fill="none"/>
			<path id="path5357-9" stroke-linejoin="round" d="m360,380c0,11.046-8.9543,20-20,20s-20-8.9543-20-20,8.9543-20,20-20,20,8.9543,20,20z" fill-opacity="0.94117647" transform="translate(-707.98502,338.20984)" stroke-dashoffset="0" stroke="#333" stroke-linecap="round" stroke-dasharray="none" stroke-width="10" fill="#90b12f"/>
			<path id="path5359-0" stroke-linejoin="round" d="m360,640c0,11.046-8.9543,20-20,20s-20-8.9543-20-20,8.9543-20,20-20,20,8.9543,20,20z" fill-opacity="0.94117647" transform="translate(-707.98502,318.20984)" stroke-dashoffset="0" stroke="#333" stroke-linecap="round" stroke-dasharray="none" stroke-width="10" fill="#90b12f"/>
			<path id="path5361-1" stroke-linejoin="miter" d="M-287.99,747.68-67.985,688.74" stroke="#333" stroke-linecap="round" stroke-dasharray="none" stroke-width="10.48808861" fill="none"/>
			<path id="path5363-0" stroke-linejoin="miter" d="m-367.99,718.21-100,0" stroke="#333" stroke-linecap="round" stroke-dasharray="none" stroke-width="10" fill="none"/>
			<path id="path5365-3" stroke-linejoin="miter" d="m-367.99,958.21-100,0" stroke="#333" stroke-linecap="round" stroke-dasharray="none" stroke-width="10" fill="none"/>
			<path id="path5367-2" stroke-linejoin="miter" d="m32.015,598.21,0,480" stroke="#333" stroke-linecap="round" stroke-dasharray="none" stroke-width="10" fill="none"/>
			<path id="path5369-7" stroke-linejoin="miter" d="m52.015,618.21,0,440" stroke="#333" stroke-linecap="round" stroke-dasharray="none" stroke-width="9.57427025" fill="none"/>
			<path id="path5822" stroke-linejoin="miter" d="m-290.41,956.77c-8.8532-23.742,19.078-83.039,23.588-72.857,6.6533,15.017,3.349,63.603,9.9319,78.462,1.7566,3.9646,4.5702-81.71,9.932-75.659,8.5064,9.6,7.9286,72.857,23.588,72.857,2.7667,0,5.2572-72.2,9.9319-61.648,5.2381,11.823-1.4417,48.813,7.449,58.846,11.564,13.05,15.688-87.887,24.83-67.253,4.3085,9.7247,1.531,45.489,6.2075,56.044,0.3209,0.7242,4.966-35.403,4.966-30.824,0,13.057,0.7482,33.626,7.449,33.626,20.242,0,22.551-13.626,52.551,6.3735" stroke="#333" stroke-linecap="butt" stroke-dasharray="none" stroke-width="6.52815437" fill="none"/>
			<path id="path5826" stroke-linejoin="miter" d="m-109.99,924.74c9.4803,15.462,30,30,30,50" stroke="#333" stroke-linecap="butt" stroke-dasharray="none" stroke-width="5" fill="none"/>
			<path id="path5828" stroke-linejoin="miter" d="m-109.99,974.74c1.2703-11.735,23.899-45.917,40-30" stroke="#333" stroke-linecap="butt" stroke-dasharray="none" stroke-width="5" fill="none"/>
		</g>
	</g>
</svg>
