<!-- Created with Inkscape (http://www.inkscape.org/) -->
<svg id="svg3866" xmlns:rdf="http://www.w3.org/1999/02/22-rdf-syntax-ns#" xmlns="http://www.w3.org/2000/svg" viewBox="0 0 400 400" version="1.1" xmlns:cc="http://creativecommons.org/ns#" xmlns:dc="http://purl.org/dc/elements/1.1/">
	<metadata id="metadata3871">
		<rdf:RDF>
			<cc:Work rdf:about="">
				<dc:format>image/svg+xml</dc:format>
				<dc:type rdf:resource="http://purl.org/dc/dcmitype/StillImage"/>
				<dc:title/>
			</cc:Work>
		</rdf:RDF>
	</metadata>
	<g id="layer1" transform="translate(0,-652.36218)">
		<g id="g8306" stroke-miterlimit="4" transform="matrix(0.43478261,0,0,0.43478261,112.89619,497.57633)">
			<path id="path6210" stroke-linejoin="round" d="m83.445,996.01a27.857,27.857,0,0,1,-55.714,0,27.857,27.857,0,1,1,55.714,0z" stroke-dashoffset="0" stroke="#FFF" stroke-linecap="square" stroke-dasharray="none" stroke-width="4.64285707" fill="#333"/>
			<rect id="rect6212" ry="34.667" height="69.333" width="520" y="961.34" x="-59.555" stroke-width="0" fill="#333"/>
			<path id="path6045" d="m660.34,816.01a460,460,0,0,1,-920,0,460,460,0,1,1,920,0z" stroke-width="0" fill="#333"/>
			<g id="g6124" transform="translate(-2300.6012,229.62672)" stroke="#FFF" stroke-dasharray="none" fill="#333">
				<rect id="rect5656-2" stroke-linejoin="round" stroke-dashoffset="0" height="285.48" width="241.56" stroke-linecap="square" y="386.38" x="2383.1" stroke-width="10"/>
				<path id="path5658-2" stroke-linejoin="miter" d="m2460,512.36,120.78-32.363" stroke-linecap="round" stroke-width="7"/>
				<path id="path5660-5" stroke-linejoin="round" d="m360,380a20,20,0,1,1,-40,0,20,20,0,1,1,40,0z" transform="matrix(0.54899995,0,0,0.54899995,2229.42,254.6207)" stroke-dashoffset="0" stroke-linecap="round" stroke-width="9.10746861"/>
				<path id="path5662-8" stroke-linejoin="round" d="m360,640a20,20,0,1,1,-40,0,20,20,0,1,1,40,0z" transform="matrix(0.54899995,0,0,0.54899995,2229.42,243.6407)" stroke-dashoffset="0" stroke-linecap="round" stroke-width="9.10746861"/>
				<path id="path5664-4" stroke-linejoin="miter" d="m2460,479.42,120.78-32.363" stroke-linecap="round" stroke-width="7"/>
				<path id="path5666-7" stroke-linejoin="miter" d="m2416.1,463.24-54.9,0" stroke-linecap="round" stroke-width="5"/>
				<path id="path5668-2" stroke-linejoin="miter" d="m2416.1,595-54.9,0" stroke-linecap="round" stroke-width="5"/>
				<path id="path5672-2" stroke-linejoin="miter" d="m2640.7,401.86,0,250" stroke-linecap="round" stroke-width="5"/>
			</g>
			<path id="path5822-2" stroke-linejoin="miter" d="m153.57,834.58c-5.3915-14.459,11.618-50.57,14.365-44.37,4.0518,9.1455,2.0395,38.734,6.0485,47.783,1.0698,2.4145,2.7833-49.761,6.0485-46.076,5.1804,5.8463,4.8286,44.37,14.365,44.37,1.6848,0,3.2015-43.969,6.0485-37.544,3.19,7.2001-0.878,29.727,4.5364,35.837,7.0422,7.9475,9.5539-53.523,15.121-40.957,2.6238,5.9223,0.9325,27.702,3.7804,34.13,0.1955,0.441,3.0243-21.56,3.0243-18.772,0,7.9517,0.4556,20.478,4.5363,20.478,12.327,0,13.734-8.2985,32.003,3.8814" stroke="#FFF" stroke-linecap="butt" stroke-dasharray="none" stroke-width="4" fill="#333"/>
			<path id="path5826-7" stroke-linejoin="miter" d="m263.45,815.08c5.7736,9.416,18.27,18.27,18.27,30.45" stroke="#FFF" stroke-linecap="butt" stroke-dasharray="none" stroke-width="4" fill="#333"/>
			<path id="path5828-5" stroke-linejoin="miter" d="m263.45,845.53c0.7737-7.1468,14.554-27.963,24.36-18.27" stroke="#FFF" stroke-linecap="butt" stroke-dasharray="none" stroke-width="4" fill="#333"/>
			<rect id="rect6198" stroke-linejoin="round" stroke-dasharray="10, 20" stroke-dashoffset="0" ry="40" height="80" width="600" stroke="#FFF" stroke-linecap="square" y="956.01" x="-99.555" stroke-width="10" fill="#333"/>
			<path id="path6200" stroke-linejoin="round" d="m-33.611,996.01a21.944,21.944,0,0,1,-43.887,0,21.944,21.944,0,1,1,43.887,0z" stroke-dashoffset="0" stroke="#FFF" stroke-linecap="square" stroke-dasharray="none" stroke-width="3.9386189" fill="#FFF"/>
			<path id="path6202" stroke-linejoin="round" d="m476.45,996.01a21.944,21.944,0,0,1,-43.888,0,21.944,21.944,0,1,1,43.888,0z" stroke-dashoffset="0" stroke="#FFF" stroke-linecap="square" stroke-dasharray="none" stroke-width="4" fill="#FFF"/>
			<path id="path6204" stroke-linejoin="round" d="m374.43,996.01a21.944,21.944,0,0,1,-43.888,0,21.944,21.944,0,1,1,43.888,0z" stroke-dashoffset="0" stroke="#FFF" stroke-linecap="square" stroke-dasharray="none" stroke-width="4" fill="#FFF"/>
			<path id="path6206" stroke-linejoin="round" d="m272.42,996.01a21.944,21.944,0,0,1,-43.888,0,21.944,21.944,0,1,1,43.888,0z" stroke-dashoffset="0" stroke="#FFF" stroke-linecap="square" stroke-dasharray="none" stroke-width="4" fill="#FFF"/>
			<path id="path6208" stroke-linejoin="round" d="m170.41,996.01a21.944,21.944,0,0,1,-43.888,0,21.944,21.944,0,1,1,43.888,0z" stroke-dashoffset="0" stroke="#FFF" stroke-linecap="square" stroke-dasharray="none" stroke-width="4" fill="#FFF"/>
			<path id="path6220" stroke-linejoin="round" d="m68.4,996.01a21.944,21.944,0,0,1,-43.888,0,21.944,21.944,0,1,1,43.888,0z" stroke-dashoffset="0" stroke="#FFF" stroke-linecap="square" stroke-dasharray="none" stroke-width="4" fill="#FFF"/>
		</g>
	</g>
</svg>
