<!-- Created with Inkscape (http://www.inkscape.org/) -->
<svg id="svg3866" xmlns:rdf="http://www.w3.org/1999/02/22-rdf-syntax-ns#" xmlns="http://www.w3.org/2000/svg" viewBox="0 0 400 400" version="1.1" xmlns:cc="http://creativecommons.org/ns#" xmlns:dc="http://purl.org/dc/elements/1.1/">
	<metadata id="metadata3871">
		<rdf:RDF>
			<cc:Work rdf:about="">
				<dc:format>image/svg+xml</dc:format>
				<dc:type rdf:resource="http://purl.org/dc/dcmitype/StillImage"/>
				<dc:title/>
			</cc:Work>
		</rdf:RDF>
	</metadata>
	<g id="layer1" transform="translate(0,-652.36218)">
		<g id="g8450" fill="#333" stroke-miterlimit="4" transform="matrix(0.43478261,0,0,0.43478261,45.674739,511.07638)">
			<path id="path4000" d="m814.95,784.96a460,460,0,0,1,-920,0,460,460,0,1,1,920,0z" stroke-width="0"/>
			<rect id="rect4022" stroke-linejoin="round" stroke-dasharray="none" stroke-dashoffset="0" transform="matrix(0.96592583,0.25881905,-0.25881905,0.96592583,0,0)" height="440" width="372.31" stroke="#FFF" stroke-linecap="square" y="446.34" x="359.86" stroke-width="10"/>
			<rect id="rect4002" stroke-linejoin="round" stroke-dasharray="none" stroke-dashoffset="0" height="440" width="372.31" stroke="#FFF" stroke-linecap="square" y="564.96" x="168.79" stroke-width="10"/>
			<path id="path4004" stroke-linejoin="miter" d="m236.49,632.65,236.92,0" stroke="#FFF" stroke-linecap="round" stroke-dasharray="none" stroke-width="10"/>
			<path id="path4006" stroke-linejoin="miter" d="m236.49,734.19,236.92,0" stroke="#FFF" stroke-linecap="round" stroke-dasharray="none" stroke-width="10"/>
			<path id="path4008" stroke-linejoin="miter" d="m236.49,835.73,236.92,0" stroke="#FFF" stroke-linecap="round" stroke-dasharray="none" stroke-width="10"/>
			<path id="path4010" stroke-linejoin="miter" d="m236.49,937.27,236.92,0" stroke="#FFF" stroke-linecap="round" stroke-dasharray="none" stroke-width="10"/>
			<path id="path4016" stroke-linejoin="miter" d="m236.49,683.42,236.92,0" stroke="#FFF" stroke-linecap="round" stroke-dasharray="none" stroke-width="10"/>
			<path id="path4018" stroke-linejoin="miter" d="m236.49,784.96,236.92,0" stroke="#FFF" stroke-linecap="round" stroke-dasharray="none" stroke-width="10"/>
			<path id="path4020" stroke-linejoin="miter" d="m236.49,886.5,236.92,0" stroke="#FFF" stroke-linecap="round" stroke-dasharray="none" stroke-width="10"/>
		</g>
	</g>
</svg>
