<!-- Created with Inkscape (http://www.inkscape.org/) -->
<svg id="svg3866" xmlns:rdf="http://www.w3.org/1999/02/22-rdf-syntax-ns#" xmlns="http://www.w3.org/2000/svg" viewBox="0 0 400 400" version="1.1" xmlns:cc="http://creativecommons.org/ns#" xmlns:dc="http://purl.org/dc/elements/1.1/">
	<metadata id="metadata3871">
		<rdf:RDF>
			<cc:Work rdf:about="">
				<dc:format>image/svg+xml</dc:format>
				<dc:type rdf:resource="http://purl.org/dc/dcmitype/StillImage"/>
				<dc:title/>
			</cc:Work>
		</rdf:RDF>
	</metadata>
	<g id="layer1" transform="translate(0,-652.36218)">
		<g id="g6770" stroke-miterlimit="4" transform="matrix(0.43478261,0,0,0.43478261,357.78547,634.95182)">
			<path id="path5564" d="m97.093,500.04a460,460,0,0,1,-920,0,460,460,0,1,1,920,0z" stroke-width="0" fill="#333"/>
			<rect id="rect5694" stroke-linejoin="round" stroke-dasharray="7, 21" stroke-dashoffset="0" height="205.48" width="173.87" stroke="#FFF" stroke-linecap="square" y="274.56" x="-441.94" stroke-width="7" fill="#333"/>
			<path id="path5696" stroke-linejoin="miter" d="m-386.62,365.24,86.934-23.294" stroke="#FFF" stroke-linecap="round" stroke-dasharray="none" stroke-width="7" fill="#333"/>
			<path id="path5698" stroke-linejoin="round" d="m-410.32,329.89a7.9031,7.9031,0,0,1,-15.806,0,7.9031,7.9031,0,1,1,15.806,0z" stroke-dashoffset="0" stroke="#FFF" stroke-linecap="round" stroke-dasharray="none" stroke-width="5" fill="#333"/>
			<path id="path5700" stroke-linejoin="round" d="m-410.32,424.72a7.9031,7.9031,0,0,1,-15.806,0,7.9031,7.9031,0,1,1,15.806,0z" stroke-dashoffset="0" stroke="#FFF" stroke-linecap="round" stroke-dasharray="none" stroke-width="5" fill="#333"/>
			<path id="path5702" stroke-linejoin="miter" d="m-386.62,341.53,86.934-23.294" stroke="#FFF" stroke-linecap="round" stroke-dasharray="none" stroke-width="7" fill="#333"/>
			<path id="path5704" stroke-linejoin="miter" d="m-418.23,329.89-39.515,0" stroke="#FFF" stroke-linecap="round" stroke-dasharray="none" stroke-width="5" fill="#333"/>
			<path id="path5706" stroke-linejoin="miter" d="m-418.23,424.72-39.515,0" stroke="#FFF" stroke-linecap="round" stroke-dasharray="none" stroke-width="5" fill="#333"/>
			<rect id="rect5721" stroke-linejoin="round" stroke-dasharray="7, 21" stroke-dashoffset="0" height="205.48" width="173.87" stroke="#FFF" stroke-linecap="square" y="314.56" x="-196.77" stroke-width="7" fill="#333"/>
			<path id="path5723" stroke-linejoin="miter" d="M-141.45,405.24-54.519,381.95" stroke="#FFF" stroke-linecap="round" stroke-dasharray="none" stroke-width="7" fill="#333"/>
			<path id="path5725" stroke-linejoin="round" d="m-165.16,369.89a7.9031,7.9031,0,0,1,-15.806,0,7.9031,7.9031,0,1,1,15.806,0z" stroke-dashoffset="0" stroke="#FFF" stroke-linecap="round" stroke-dasharray="none" stroke-width="5" fill="#333"/>
			<path id="path5727" stroke-linejoin="round" d="m-165.16,464.72a7.9031,7.9031,0,0,1,-15.806,0,7.9031,7.9031,0,1,1,15.806,0z" stroke-dashoffset="0" stroke="#FFF" stroke-linecap="round" stroke-dasharray="none" stroke-width="5" fill="#333"/>
			<path id="path5729" stroke-linejoin="miter" d="m-141.45,381.53,86.934-23.294" stroke="#FFF" stroke-linecap="round" stroke-dasharray="none" stroke-width="7" fill="#333"/>
			<path id="path5731" stroke-linejoin="miter" d="m-173.06,369.89-39.515,0" stroke="#FFF" stroke-linecap="round" stroke-dasharray="none" stroke-width="5" fill="#333"/>
			<path id="path5733" stroke-linejoin="miter" d="m-173.06,464.72-39.515,0" stroke="#FFF" stroke-linecap="round" stroke-dasharray="none" stroke-width="5" fill="#333"/>
			<rect id="rect5737" stroke-linejoin="round" stroke-dasharray="7, 21" stroke-dashoffset="0" height="205.48" width="173.87" stroke="#FFF" stroke-linecap="square" y="356.56" x="-678.77" stroke-width="7" fill="#333"/>
			<path id="path5739" stroke-linejoin="miter" d="m-623.45,447.24,86.934-23.294" stroke="#FFF" stroke-linecap="round" stroke-dasharray="none" stroke-width="7" fill="#333"/>
			<path id="path5741" stroke-linejoin="round" d="m-647.16,411.89a7.9031,7.9031,0,0,1,-15.806,0,7.9031,7.9031,0,1,1,15.806,0z" stroke-dashoffset="0" stroke="#FFF" stroke-linecap="round" stroke-dasharray="none" stroke-width="5" fill="#333"/>
			<path id="path5743" stroke-linejoin="round" d="m-647.16,506.72a7.9031,7.9031,0,0,1,-15.806,0,7.9031,7.9031,0,1,1,15.806,0z" stroke-dashoffset="0" stroke="#FFF" stroke-linecap="round" stroke-dasharray="none" stroke-width="5" fill="#333"/>
			<path id="path5745" stroke-linejoin="miter" d="m-623.45,423.53,86.934-23.294" stroke="#FFF" stroke-linecap="round" stroke-dasharray="none" stroke-width="7" fill="#333"/>
			<path id="path5747" stroke-linejoin="miter" d="m-655.06,411.89-39.515,0" stroke="#FFF" stroke-linecap="round" stroke-dasharray="none" stroke-width="5" fill="#333"/>
			<path id="path5749" stroke-linejoin="miter" d="m-655.06,506.72-39.515,0" stroke="#FFF" stroke-linecap="round" stroke-dasharray="none" stroke-width="5" fill="#333"/>
			<path id="path5751" d="m-599.74,600.04-20,40,40,0z" stroke-width="0" fill="#FFF"/>
			<path id="path5753" stroke-linejoin="miter" d="m-599.74,620.04,0,140" stroke="#FFF" stroke-linecap="butt" stroke-dasharray="none" stroke-width="7" fill="#333"/>
			<path id="path5755" d="m-362.91,520.04-20,40,40,0z" stroke-width="0" fill="#FFF"/>
			<path id="path5757" stroke-linejoin="miter" d="m-362.91,540.04,0,220" stroke="#FFF" stroke-linecap="butt" stroke-dasharray="none" stroke-width="7" fill="#333"/>
			<path id="path5759" d="m-117.74,560.04-20,40,40,0z" stroke-width="0" fill="#FFF"/>
			<path id="path5761" stroke-linejoin="miter" d="m-117.74,580.04,0,180" stroke="#FFF" stroke-linecap="butt" stroke-dasharray="none" stroke-width="7" fill="#333"/>
		</g>
	</g>
</svg>
