<!-- Created with Inkscape (http://www.inkscape.org/) -->
<svg id="svg3866" xmlns:rdf="http://www.w3.org/1999/02/22-rdf-syntax-ns#" xmlns="http://www.w3.org/2000/svg" viewBox="0 0 400 400" version="1.1" xmlns:cc="http://creativecommons.org/ns#" xmlns:dc="http://purl.org/dc/elements/1.1/">
	<metadata id="metadata3871">
		<rdf:RDF>
			<cc:Work rdf:about="">
				<dc:format>image/svg+xml</dc:format>
				<dc:type rdf:resource="http://purl.org/dc/dcmitype/StillImage"/>
				<dc:title/>
			</cc:Work>
		</rdf:RDF>
	</metadata>
	<g id="layer1" transform="translate(0,-652.36218)">
		<g id="g6326" fill="#333" stroke-miterlimit="4" transform="matrix(0.43478261,0,0,0.43478261,146.02076,522.84109)">
			<path id="path6368" d="m584.15,757.9a460,460,0,0,1,-920,0,460,460,0,1,1,920,0z" stroke-width="0"/>
			<g id="g6504" transform="translate(-381.56205,203.82197)" stroke="#FFF" stroke-dasharray="none">
				<path id="path6498" stroke-linejoin="miter" d="M505.71,775.79c-51.23-69.12-95.87-144.85-126.69-234.38-38.01-145.7,49.73-209.05,126.69-209.05,76.968,0,164.7,63.347,126.69,209.04-26.764,85.861-72.736,162.12-126.69,234.38z" stroke-linecap="butt" stroke-width="10"/>
				<path id="path6501" stroke-linejoin="round" d="m540,3300a60,60,0,1,1,-120,0,60,60,0,1,1,120,0z" transform="matrix(0.63346937,0,0,0.63346937,201.64899,-1627.592)" stroke-dashoffset="0" stroke-linecap="square" stroke-width="15.78608322"/>
			</g>
		</g>
	</g>
</svg>
