<!-- Created with Inkscape (http://www.inkscape.org/) -->
<svg id="svg3866" xmlns:rdf="http://www.w3.org/1999/02/22-rdf-syntax-ns#" xmlns="http://www.w3.org/2000/svg" viewBox="0 0 400 400" version="1.1" xmlns:cc="http://creativecommons.org/ns#" xmlns:dc="http://purl.org/dc/elements/1.1/">
	<metadata id="metadata3871">
		<rdf:RDF>
			<cc:Work rdf:about="">
				<dc:format>image/svg+xml</dc:format>
				<dc:type rdf:resource="http://purl.org/dc/dcmitype/StillImage"/>
				<dc:title/>
			</cc:Work>
		</rdf:RDF>
	</metadata>
	<g id="layer1" transform="translate(0,-652.36218)">
		<g id="g6031" fill="#333" stroke-miterlimit="4" transform="matrix(0.43478261,0,0,0.43478261,368.65156,606.50624)">
			<path id="path4684" d="m72.101,565.47a460,460,0,0,1,-920,0,460,460,0,1,1,920,0z" stroke-width="0"/>
			<rect id="rect4686" stroke-linejoin="round" stroke-dasharray="none" stroke-dashoffset="0" height="520" width="440" stroke="#FFF" stroke-linecap="square" y="305.47" x="-607.9" stroke-width="10"/>
			<path id="path5215" stroke-linejoin="miter" d="m-467.9,385.47,220,0" stroke="#FFF" stroke-linecap="round" stroke-dasharray="none" stroke-width="10.48808861"/>
			<path id="path5219" stroke-linejoin="miter" d="m-467.9,505.47,220,0" stroke="#FFF" stroke-linecap="round" stroke-dasharray="none" stroke-width="10.48808861"/>
			<path id="path5221" stroke-linejoin="miter" d="m-467.9,625.47,220,0" stroke="#FFF" stroke-linecap="round" stroke-dasharray="none" stroke-width="10.48808861"/>
			<path id="path5223" stroke-linejoin="miter" d="m-467.9,745.47,220,0" stroke="#FFF" stroke-linecap="round" stroke-dasharray="none" stroke-width="10.48808861"/>
			<path id="path5227" stroke-linejoin="round" d="m-527.9,445.47a20,20,0,0,1,-40,0,20,20,0,1,1,40,0z" stroke-dashoffset="0" stroke="#FFF" stroke-linecap="round" stroke-dasharray="none" stroke-width="10"/>
			<path id="path5229" stroke-linejoin="round" d="m-527.9,685.47a20,20,0,0,1,-40,0,20,20,0,1,1,40,0z" stroke-dashoffset="0" stroke="#FFF" stroke-linecap="round" stroke-dasharray="none" stroke-width="10"/>
			<path id="path5231" stroke-linejoin="miter" d="m-467.9,445.47,220,0" stroke="#FFF" stroke-linecap="round" stroke-dasharray="none" stroke-width="10.48808861"/>
			<path id="path5233" stroke-linejoin="miter" d="m-467.9,565.47,220,0" stroke="#FFF" stroke-linecap="round" stroke-dasharray="none" stroke-width="10.48808861"/>
			<path id="path5235" stroke-linejoin="miter" d="m-467.9,685.47,220,0" stroke="#FFF" stroke-linecap="round" stroke-dasharray="none" stroke-width="10.48808861"/>
		</g>
	</g>
</svg>
