<!-- Created with Inkscape (http://www.inkscape.org/) -->
<svg id="svg3866" xmlns:rdf="http://www.w3.org/1999/02/22-rdf-syntax-ns#" xmlns="http://www.w3.org/2000/svg" viewBox="0 0 400 400" version="1.1" xmlns:cc="http://creativecommons.org/ns#" xmlns:dc="http://purl.org/dc/elements/1.1/">
	<metadata id="metadata3871">
		<rdf:RDF>
			<cc:Work rdf:about="">
				<dc:format>image/svg+xml</dc:format>
				<dc:type rdf:resource="http://purl.org/dc/dcmitype/StillImage"/>
				<dc:title/>
			</cc:Work>
		</rdf:RDF>
	</metadata>
	<g id="layer1" transform="translate(0,-652.36218)">
		<g id="g6171" fill="#333" stroke-miterlimit="4" transform="matrix(0.43478261,0,0,0.4347826,346.69172,625.83091)">
			<path id="path5272" d="m122.61,521.02a460,460,0,0,1,-920,0,460,460,0,1,1,920,0z" stroke-width="0"/>
			<rect id="rect5274" stroke-linejoin="round" stroke-dasharray="none" stroke-dashoffset="0" height="285.48" width="241.56" stroke="#FFF" stroke-linecap="square" y="378.28" x="-255.03" stroke-width="10"/>
			<path id="path5278" stroke-linejoin="miter" d="m-178.17,504.26,120.78-32.363" stroke="#FFF" stroke-linecap="round" stroke-dasharray="none" stroke-width="7"/>
			<path id="path5284" stroke-linejoin="round" d="m-211.11,455.14a10.98,10.98,0,0,1,-21.96,0,10.98,10.98,0,1,1,21.96,0z" stroke-dashoffset="0" stroke="#FFF" stroke-linecap="round" stroke-dasharray="none" stroke-width="5"/>
			<path id="path5286" stroke-linejoin="round" d="m-211.11,586.9a10.98,10.98,0,0,1,-21.96,0,10.98,10.98,0,1,1,21.96,0z" stroke-dashoffset="0" stroke="#FFF" stroke-linecap="round" stroke-dasharray="none" stroke-width="5"/>
			<path id="path5288" stroke-linejoin="miter" d="m-178.17,471.32,120.78-32.363" stroke="#FFF" stroke-linecap="round" stroke-dasharray="none" stroke-width="7"/>
			<path id="path5294" stroke-linejoin="miter" d="m-222.09,455.14-54.9,0" stroke="#FFF" stroke-linecap="round" stroke-dasharray="none" stroke-width="5"/>
			<path id="path5298" stroke-linejoin="miter" d="m-222.09,586.9-54.9,0" stroke="#FFF" stroke-linecap="round" stroke-dasharray="none" stroke-width="5"/>
			<path id="path5371" stroke-linejoin="miter" d="m-257.39,521.02-420,0" stroke="#FFF" stroke-linecap="butt" stroke-dasharray="none" stroke-width="7"/>
			<g id="g5492" transform="translate(-1837.3909,-31.340295)" stroke="#FFF" stroke-dasharray="none">
				<rect id="rect5373" stroke-linejoin="round" stroke-dashoffset="0" height="180" width="140" stroke-linecap="round" y="612.36" x="1180" stroke-width="7"/>
				<path id="path5375" stroke-linejoin="round" d="m1310,500a20,20,0,1,1,-40,0,20,20,0,1,1,40,0z" transform="translate(-40,52.36218)" stroke-dashoffset="0" stroke-linecap="round" stroke-width="5"/>
				<path id="path5377" stroke-linejoin="miter" d="m1250,572.36,0,40" stroke-linecap="butt" stroke-width="5"/>
				<path id="path5379" stroke-linejoin="miter" d="m1300,642.36-70,0" stroke-linecap="round" stroke-width="4"/>
				<path id="path5381" stroke-linejoin="miter" d="m1230,672.36,70,0" stroke-linecap="round" stroke-width="4"/>
				<path id="path5383" stroke-linejoin="miter" d="m1230,702.36,70,0" stroke-linecap="round" stroke-width="4"/>
				<path id="path5385" stroke-linejoin="miter" d="m1230,732.36,70,0" stroke-linecap="round" stroke-width="4"/>
				<path id="path5387" stroke-linejoin="miter" d="m1230,762.36,70,0" stroke-linecap="round" stroke-width="4"/>
				<path id="path5389" stroke-linejoin="round" d="m1250,620a5,5,0,1,1,-10,0,5,5,0,1,1,10,0z" transform="matrix(1.3885202,0,0,1.3885202,-523.70766,-188.52035)" stroke-dashoffset="0" stroke-linecap="round" stroke-width="3"/>
				<path id="path5490" stroke-linejoin="round" d="m1250,620a5,5,0,1,1,-10,0,5,5,0,1,1,10,0z" transform="matrix(1.3885202,0,0,1.3885202,-523.70766,-128.41627)" stroke-dashoffset="0" stroke-linecap="round" stroke-width="3"/>
			</g>
			<g id="g5504" transform="translate(-1645.3909,-31.340295)" stroke="#FFF" stroke-dasharray="none">
				<rect id="rect5506" stroke-linejoin="round" stroke-dashoffset="0" height="180" width="140" stroke-linecap="round" y="612.36" x="1180" stroke-width="7"/>
				<path id="path5508" stroke-linejoin="round" d="m1310,500a20,20,0,1,1,-40,0,20,20,0,1,1,40,0z" transform="translate(-40,52.36218)" stroke-dashoffset="0" stroke-linecap="round" stroke-width="5"/>
				<path id="path5510" stroke-linejoin="miter" d="m1250,572.36,0,40" stroke-linecap="butt" stroke-width="5"/>
				<path id="path5512" stroke-linejoin="miter" d="m1300,642.36-70,0" stroke-linecap="round" stroke-width="4"/>
				<path id="path5514" stroke-linejoin="miter" d="m1230,672.36,70,0" stroke-linecap="round" stroke-width="4"/>
				<path id="path5516" stroke-linejoin="miter" d="m1230,702.36,70,0" stroke-linecap="round" stroke-width="4"/>
				<path id="path5518" stroke-linejoin="miter" d="m1230,732.36,70,0" stroke-linecap="round" stroke-width="4"/>
				<path id="path5520" stroke-linejoin="miter" d="m1230,762.36,70,0" stroke-linecap="round" stroke-width="4"/>
				<path id="path5522" stroke-linejoin="round" d="m1250,620a5,5,0,1,1,-10,0,5,5,0,1,1,10,0z" transform="matrix(1.3885202,0,0,1.3885202,-523.70766,-188.52035)" stroke-dashoffset="0" stroke-linecap="round" stroke-width="3"/>
				<path id="path5524" stroke-linejoin="round" d="m1250,620a5,5,0,1,1,-10,0,5,5,0,1,1,10,0z" transform="matrix(1.3885202,0,0,1.3885202,-523.70766,-128.41627)" stroke-dashoffset="0" stroke-linecap="round" stroke-width="3"/>
			</g>
		</g>
	</g>
</svg>
