<!-- Created with Inkscape (http://www.inkscape.org/) -->
<svg id="svg3866" xmlns:rdf="http://www.w3.org/1999/02/22-rdf-syntax-ns#" xmlns="http://www.w3.org/2000/svg" viewBox="0 0 400 400" version="1.1" xmlns:cc="http://creativecommons.org/ns#" xmlns:dc="http://purl.org/dc/elements/1.1/">
	<metadata id="metadata3871">
		<rdf:RDF>
			<cc:Work rdf:about="">
				<dc:format>image/svg+xml</dc:format>
				<dc:type rdf:resource="http://purl.org/dc/dcmitype/StillImage"/>
				<dc:title/>
			</cc:Work>
		</rdf:RDF>
	</metadata>
	<g id="layer1" transform="translate(0,-652.36218)">
		<g id="g6858" fill="#333" stroke-miterlimit="4" transform="matrix(0.43478261,0,0,0.43478261,114.18685,546.3705)">
			<path id="path6645" d="m657.37,703.78a460,460,0,0,1,-920,0,460,460,0,1,1,920,0z" stroke-width="0"/>
			<path id="path6713" stroke-linejoin="round" d="m457.37,703.78a260,260,0,0,1,-520,0,260,260,0,1,1,520,0z" stroke-dashoffset="0" stroke="#FFF" stroke-linecap="square" stroke-dasharray="none" stroke-width="10"/>
			<path id="path6760" stroke-linejoin="round" d="m37.451,385.63c-29.014,0-52.535,22.829-52.535,50.99,0,21.312,13.488,39.545,32.616,47.166-50.127,3.8243-32.616,63.312-50.127,97.306h140.09c-17.512-33.993,0-93.482-50.127-97.306,19.128-7.6208,32.616-25.854,32.616-47.166,0-28.161-23.521-50.99-52.535-50.99z" stroke-dashoffset="0" stroke="#333" stroke-linecap="square" stroke-dasharray="none" stroke-width="50"/>
			<path id="path6711" stroke-linejoin="round" d="m37.451,385.63c-29.014,0-52.535,22.829-52.535,50.99,0,21.312,13.488,39.545,32.616,47.166-50.127,3.8243-32.616,63.312-50.127,97.306h140.09c-17.512-33.993,0-93.482-50.127-97.306,19.128-7.6208,32.616-25.854,32.616-47.166,0-28.161-23.521-50.99-52.535-50.99z" stroke-dashoffset="0" stroke="#FFF" stroke-linecap="square" stroke-dasharray="none" stroke-width="10"/>
			<path id="path6762" stroke-linejoin="round" d="m387.32,448.32c-29.014,0-52.535,22.829-52.535,50.99,0,21.311,13.488,39.545,32.616,47.166-50.127,3.8243-32.616,63.313-50.127,97.306h140.09c-17.512-33.993,0-93.482-50.127-97.306,19.128-7.6207,32.616-25.854,32.616-47.166,0-28.161-23.521-50.99-52.535-50.99z" stroke-dashoffset="0" stroke="#333" stroke-linecap="square" stroke-dasharray="none" stroke-width="50"/>
			<path id="path6764" stroke-linejoin="round" d="m387.32,448.32c-29.014,0-52.535,22.829-52.535,50.99,0,21.311,13.488,39.545,32.616,47.166-50.127,3.8243-32.616,63.313-50.127,97.306h140.09c-17.512-33.993,0-93.482-50.127-97.306,19.128-7.6207,32.616-25.854,32.616-47.166,0-28.161-23.521-50.99-52.535-50.99z" stroke-dashoffset="0" stroke="#FFF" stroke-linecap="square" stroke-dasharray="none" stroke-width="10"/>
			<path id="path6766" stroke-linejoin="round" d="m197.45,825.63c-29.014,0-52.535,22.829-52.535,50.99,0,21.312,13.488,39.545,32.616,47.166-50.127,3.8243-32.616,63.312-50.127,97.306h140.09c-17.512-33.993,0-93.482-50.127-97.306,19.128-7.6208,32.616-25.854,32.616-47.166,0-28.161-23.521-50.99-52.535-50.99z" stroke-dashoffset="0" stroke="#333" stroke-linecap="square" stroke-dasharray="none" stroke-width="50"/>
			<path id="path6768" stroke-linejoin="round" d="m197.45,825.63c-29.014,0-52.535,22.829-52.535,50.99,0,21.312,13.488,39.545,32.616,47.166-50.127,3.8243-32.616,63.312-50.127,97.306h140.09c-17.512-33.993,0-93.482-50.127-97.306,19.128-7.6208,32.616-25.854,32.616-47.166,0-28.161-23.521-50.99-52.535-50.99z" stroke-dashoffset="0" stroke="#FFF" stroke-linecap="square" stroke-dasharray="none" stroke-width="10"/>
		</g>
	</g>
</svg>
