<!-- Created with Inkscape (http://www.inkscape.org/) -->
<svg id="svg3866" xmlns:rdf="http://www.w3.org/1999/02/22-rdf-syntax-ns#" xmlns="http://www.w3.org/2000/svg" viewBox="0 0 400 400" version="1.1" xmlns:cc="http://creativecommons.org/ns#" xmlns:dc="http://purl.org/dc/elements/1.1/">
	<metadata id="metadata3871">
		<rdf:RDF>
			<cc:Work rdf:about="">
				<dc:format>image/svg+xml</dc:format>
				<dc:type rdf:resource="http://purl.org/dc/dcmitype/StillImage"/>
				<dc:title/>
			</cc:Work>
		</rdf:RDF>
	</metadata>
	<g id="layer1" transform="translate(0,-652.36218)">
		<g id="g6485" fill="#333" stroke-miterlimit="4" transform="matrix(0.43478261,0,0,0.43478261,96.885813,540.14213)">
			<path id="path6456" d="m697.16,718.11a460,460,0,0,1,-920,0,460,460,0,1,1,920,0z" stroke-width="0"/>
			<g id="g6622" transform="translate(-2242.8374,165.74378)" stroke="#FFF" stroke-dasharray="none" stroke-width="10">
				<rect id="rect6603" stroke-linejoin="round" stroke-dashoffset="0" transform="matrix(0,1,-1,0,0,0)" height="520" width="440" stroke-linecap="square" y="-2740" x="352.36"/>
				<path id="path6607" stroke-linejoin="round" d="m360,380a20,20,0,1,1,-40,0,20,20,0,1,1,40,0z" transform="matrix(0,1,-1,0,2980.0001,72.362305)" stroke-dashoffset="0" stroke-linecap="round"/>
				<path id="path6609" stroke-linejoin="round" d="m360,640a20,20,0,1,1,-40,0,20,20,0,1,1,40,0z" transform="matrix(0,1,-1,0,3000.0001,72.362305)" stroke-dashoffset="0" stroke-linecap="round"/>
				<path id="path6613" stroke-linejoin="miter" d="m2600,412.36,0-100" stroke-linecap="round"/>
				<path id="path6615" stroke-linejoin="miter" d="m2360,412.36,0-100" stroke-linecap="round"/>
			</g>
			<path id="path6629" stroke-linejoin="miter" d="m37.269,718.11,400,0" stroke="#FFF" stroke-linecap="butt" stroke-dasharray="none" stroke-width="7"/>
			<path id="path6631" stroke-linejoin="miter" d="m37.269,778.11,400,0" stroke="#FFF" stroke-linecap="butt" stroke-dasharray="none" stroke-width="7"/>
			<path id="path6633" stroke-linejoin="miter" d="m37.269,838.11,400,0" stroke="#FFF" stroke-linecap="butt" stroke-dasharray="none" stroke-width="7.18184853"/>
			<path id="path6637" stroke-linejoin="miter" d="m117.27,658.11,0,240" stroke="#FFF" stroke-linecap="butt" stroke-dasharray="none" stroke-width="7"/>
			<path id="path6639" stroke-linejoin="miter" d="m357.27,658.11,0,240" stroke="#FFF" stroke-linecap="butt" stroke-dasharray="none" stroke-width="7"/>
			<path id="path6641" stroke-linejoin="miter" d="m237.27,658.11,0,240" stroke="#FFF" stroke-linecap="butt" stroke-dasharray="none" stroke-width="7"/>
		</g>
	</g>
</svg>
