<!-- Created with Inkscape (http://www.inkscape.org/) -->
<svg id="svg3866" xmlns:rdf="http://www.w3.org/1999/02/22-rdf-syntax-ns#" xmlns="http://www.w3.org/2000/svg" viewBox="0 0 400 400" version="1.1" xmlns:cc="http://creativecommons.org/ns#" xmlns:dc="http://purl.org/dc/elements/1.1/">
	<metadata id="metadata3871">
		<rdf:RDF>
			<cc:Work rdf:about="">
				<dc:format>image/svg+xml</dc:format>
				<dc:type rdf:resource="http://purl.org/dc/dcmitype/StillImage"/>
				<dc:title/>
			</cc:Work>
		</rdf:RDF>
	</metadata>
	<g id="layer1" transform="translate(0,-652.36218)">
		<g id="g7945" stroke-miterlimit="4">
			<path id="path5918" d="m400,852.36a200,200,0,0,1,-400,0,200,200,0,1,1,400,0z" stroke-width="0" fill="#333"/>
			<rect id="rect5920" stroke-linejoin="round" stroke-dasharray="none" stroke-dashoffset="0" height="89.339" width="75.595" stroke="#FFF" stroke-linecap="square" y="761.28" x="165.64" stroke-width="3.0435" fill="#333"/>
			<path id="path5922" stroke-linejoin="miter" d="M189.69,800.71,227.49,790.58" stroke="#FFF" stroke-linecap="round" stroke-dasharray="none" stroke-width="3.04347825" fill="#333"/>
			<path id="path5924" stroke-linejoin="round" d="m179.38,785.34a3.4361,3.4361,0,0,1,-6.8722,0,3.4361,3.4361,0,1,1,6.8722,0z" stroke-dashoffset="0" stroke="#FFF" stroke-linecap="round" stroke-dasharray="none" stroke-width="2.173913" fill="#333"/>
			<path id="path5926" stroke-linejoin="round" d="m179.38,826.57a3.4361,3.4361,0,0,1,-6.8722,0,3.4361,3.4361,0,1,1,6.8722,0z" stroke-dashoffset="0" stroke="#FFF" stroke-linecap="round" stroke-dasharray="none" stroke-width="2.173913" fill="#333"/>
			<path id="path5928" stroke-linejoin="miter" d="M189.69,790.4,227.49,780.27" stroke="#FFF" stroke-linecap="round" stroke-dasharray="none" stroke-width="3.043" fill="#333"/>
			<path id="path5930" stroke-linejoin="miter" d="m175.95,785.34-17.181,0" stroke="#FFF" stroke-linecap="round" stroke-dasharray="none" stroke-width="2.173913" fill="#333"/>
			<path id="path5932" stroke-linejoin="miter" d="m175.95,826.57-17.181,0" stroke="#FFF" stroke-linecap="round" stroke-dasharray="none" stroke-width="2.173913" fill="#333"/>
			<rect id="rect5934" stroke-linejoin="round" stroke-dasharray="3.04347827, 9.13043481" stroke-dashoffset="0" height="89.339" width="75.595" stroke="#FFF" stroke-linecap="square" y="795.24" x="272.23" stroke-width="3.0435" fill="#333"/>
			<path id="path5936" stroke-linejoin="miter" d="M296.28,834.66,334.08,824.54" stroke="#FFF" stroke-linecap="round" stroke-dasharray="none" stroke-width="3.04347825" fill="#333"/>
			<path id="path5938" stroke-linejoin="round" d="m285.98,819.29a3.4361,3.4361,0,0,1,-6.8722,0,3.4361,3.4361,0,1,1,6.8722,0z" stroke-dashoffset="0" stroke="#FFF" stroke-linecap="round" stroke-dasharray="none" stroke-width="2.173913" fill="#333"/>
			<path id="path5940" stroke-linejoin="round" d="m285.98,860.53a3.4361,3.4361,0,0,1,-6.8722,0,3.4361,3.4361,0,1,1,6.8722,0z" stroke-dashoffset="0" stroke="#FFF" stroke-linecap="round" stroke-dasharray="none" stroke-width="2.173913" fill="#333"/>
			<path id="path5942" stroke-linejoin="miter" d="M296.28,824.36,334.08,814.23" stroke="#FFF" stroke-linecap="round" stroke-dasharray="none" stroke-width="3.04347825" fill="#333"/>
			<path id="path5944" stroke-linejoin="miter" d="m282.54,819.29-17.181,0" stroke="#FFF" stroke-linecap="round" stroke-dasharray="none" stroke-width="2.173913" fill="#333"/>
			<path id="path5946" stroke-linejoin="miter" d="m282.54,860.53-17.181,0" stroke="#FFF" stroke-linecap="round" stroke-dasharray="none" stroke-width="2.173913" fill="#333"/>
			<rect id="rect5948" stroke-linejoin="round" stroke-dasharray="3.04347827, 9.13043481" stroke-dashoffset="0" height="89.339" width="75.595" stroke="#FFF" stroke-linecap="square" y="813.46" x="62.666" stroke-width="3.0435" fill="#333"/>
			<path id="path5950" stroke-linejoin="miter" d="M86.719,852.88,124.52,842.76" stroke="#FFF" stroke-linecap="round" stroke-dasharray="none" stroke-width="3.04347825" fill="#333"/>
			<path id="path5952" stroke-linejoin="round" d="m76.411,837.51a3.4361,3.4361,0,0,1,-6.8722,0,3.4361,3.4361,0,1,1,6.8722,0z" stroke-dashoffset="0" stroke="#FFF" stroke-linecap="round" stroke-dasharray="none" stroke-width="2.173913" fill="#333"/>
			<path id="path5954" stroke-linejoin="round" d="m76.411,878.74a3.4361,3.4361,0,0,1,-6.8722,0,3.4361,3.4361,0,1,1,6.8722,0z" stroke-dashoffset="0" stroke="#FFF" stroke-linecap="round" stroke-dasharray="none" stroke-width="2.173913" fill="#333"/>
			<path id="path5956" stroke-linejoin="miter" d="M86.719,842.57,124.52,832.45" stroke="#FFF" stroke-linecap="round" stroke-dasharray="none" stroke-width="3.04347825" fill="#333"/>
			<path id="path5958" stroke-linejoin="miter" d="m72.975,837.51-17.181,0" stroke="#FFF" stroke-linecap="round" stroke-dasharray="none" stroke-width="2.173913" fill="#333"/>
			<path id="path5960" stroke-linejoin="miter" d="m72.975,878.74-17.181,0" stroke="#FFF" stroke-linecap="round" stroke-dasharray="none" stroke-width="2.173913" fill="#333"/>
			<path id="path5964" d="m97.027,919.32-8.6957,17.391,17.391,0z" stroke-width="0" fill="#FFF"/>
			<path id="path5966" stroke-linejoin="miter" d="m97.027,928.01,0,60.87" stroke="#FFF" stroke-linecap="butt" stroke-dasharray="none" stroke-width="3.04347825" fill="#FFF"/>
			<path id="path5970" d="m200,868.01-8.6956,17.391,17.391,0z" stroke-width="0" fill="#FFF"/>
			<path id="path5972" stroke-linejoin="miter" d="m200,876.71,0,95.652" stroke="#FFF" stroke-linecap="butt" stroke-dasharray="none" stroke-width="3.04347825" fill="#FFF"/>
			<path id="path5976" d="m306.59,901.97-8.6957,17.391,17.391,0z" stroke-width="0" fill="#FFF"/>
			<path id="path5978" stroke-linejoin="miter" d="m306.59,910.66,0,78.261" stroke="#FFF" stroke-linecap="butt" stroke-dasharray="none" stroke-width="3.04347825" fill="#FFF"/>
			<path id="rect5984" stroke-linejoin="round" d="m222.9,691.07-21.739,37.653-15.061-8.6956-4.3478,7.5306,15.061,8.6956,7.5307,4.3478,4.3478-7.5307,21.739-37.653-7.5306-4.3478z" stroke-dashoffset="0" stroke="#FFF" stroke-linecap="round" stroke-dasharray="none" stroke-width="3" fill="#333"/>
		</g>
	</g>
</svg>
