<!-- Created with Inkscape (http://www.inkscape.org/) -->
<svg id="svg3866" xmlns:rdf="http://www.w3.org/1999/02/22-rdf-syntax-ns#" xmlns="http://www.w3.org/2000/svg" viewBox="0 0 400 400" version="1.1" xmlns:cc="http://creativecommons.org/ns#" xmlns:dc="http://purl.org/dc/elements/1.1/">
	<metadata id="metadata3871">
		<rdf:RDF>
			<cc:Work rdf:about="">
				<dc:format>image/svg+xml</dc:format>
				<dc:type rdf:resource="http://purl.org/dc/dcmitype/StillImage"/>
				<dc:title/>
			</cc:Work>
		</rdf:RDF>
	</metadata>
	<g id="layer1" transform="translate(0,-652.36218)">
		<g id="g5309" transform="matrix(0.43478261,0,0,0.43478261,362.5028,501.09902)">
			<path id="path3217" d="M960,500c0,254.05-205.95,460-460,460s-460-205.95-460-460,205.95-460,460-460,460,205.95,460,460z" transform="translate(-873.75644,307.90526)" stroke-miterlimit="4" stroke-width="0" fill="#90b12f"/>
			<path id="rect3991" stroke-linejoin="miter" d="m-549.86,1037.9-3.8936-300c-1.1503-88.633,71.36-160,160-160h40c88.64,0,158.67,71.37,160,160l3.8936,300z" stroke-dashoffset="0" stroke="#333" stroke-linecap="round" stroke-miterlimit="4" stroke-width="10" fill="#FFF"/>
			<path id="path3994" stroke-linejoin="miter" d="m-469.86,937.91,200,0" stroke="#333" stroke-linecap="round" stroke-miterlimit="4" stroke-dasharray="none" stroke-width="10" fill="none"/>
			<path id="path3996" stroke-linejoin="miter" d="m-369.86,917.91-60-80,120,0z" stroke="#333" stroke-linecap="butt" stroke-width="1px" fill="#333"/>
			<path id="path3998" stroke-linejoin="miter" d="m-369.86,877.91,0-140" stroke="#333" stroke-linecap="butt" stroke-miterlimit="4" stroke-dasharray="none" stroke-width="10" fill="none"/>
		</g>
	</g>
</svg>
