<!-- Created with Inkscape (http://www.inkscape.org/) -->
<svg id="svg3866" xmlns:rdf="http://www.w3.org/1999/02/22-rdf-syntax-ns#" xmlns="http://www.w3.org/2000/svg" viewBox="0 0 400 400" version="1.1" xmlns:cc="http://creativecommons.org/ns#" xmlns:dc="http://purl.org/dc/elements/1.1/">
	<metadata id="metadata3871">
		<rdf:RDF>
			<cc:Work rdf:about="">
				<dc:format>image/svg+xml</dc:format>
				<dc:type rdf:resource="http://purl.org/dc/dcmitype/StillImage"/>
				<dc:title/>
			</cc:Work>
		</rdf:RDF>
	</metadata>
	<g id="layer1" transform="translate(0,-652.36218)">
		<g id="g3922" stroke-miterlimit="4" transform="matrix(0.43478261,0,0,0.43478261,-452.17391,1823.985)">
			<path id="path5272" d="M960,500c0,254.05-205.95,460-460,460s-460-205.95-460-460,205.95-460,460-460,460,205.95,460,460z" transform="translate(1000,-2734.7324)" stroke-width="0" fill="#90b12f"/>
			<rect id="rect5274" stroke-linejoin="round" stroke-dasharray="none" stroke-dashoffset="0" height="285.48" width="241.56" stroke="#333" stroke-linecap="square" y="-2377.5" x="1582.4" stroke-width="10" fill="#FFF"/>
			<path id="path5278" stroke-linejoin="miter" d="M1659.2-2251.5,1780-2283.9" stroke="#333" stroke-linecap="round" stroke-dasharray="none" stroke-width="7" fill="#FFF"/>
			<path id="path5284" stroke-linejoin="round" d="m360,380c0,11.046-8.9543,20-20,20s-20-8.9543-20-20,8.9543-20,20-20,20,8.9543,20,20z" fill-opacity="0.94117647" transform="matrix(0.54899995,0,0,0.54899995,1428.64,-2509.2324)" stroke-dashoffset="0" stroke="#333" stroke-linecap="round" stroke-dasharray="none" stroke-width="9.10746861" fill="#90b12f"/>
			<path id="path5286" stroke-linejoin="round" d="m360,640c0,11.046-8.9543,20-20,20s-20-8.9543-20-20,8.9543-20,20-20,20,8.9543,20,20z" fill-opacity="0.94117647" transform="matrix(0.54899995,0,0,0.54899995,1428.64,-2520.2124)" stroke-dashoffset="0" stroke="#333" stroke-linecap="round" stroke-dasharray="none" stroke-width="9.10746861" fill="#90b12f"/>
			<path id="path5288" stroke-linejoin="miter" d="M1659.2-2284.4,1780-2316.8" stroke="#333" stroke-linecap="round" stroke-dasharray="none" stroke-width="7" fill="#FFF"/>
			<path id="path5294" stroke-linejoin="miter" d="m1615.3-2300.6-54.9,0" stroke="#333" stroke-linecap="round" stroke-dasharray="none" stroke-width="5" fill="#FFF"/>
			<path id="path5298" stroke-linejoin="miter" d="m1615.3-2168.9-54.9,0" stroke="#333" stroke-linecap="round" stroke-dasharray="none" stroke-width="5" fill="#FFF"/>
			<path id="path5371" stroke-linejoin="miter" d="m1580-2234.7-420,0" stroke="#333" stroke-linecap="butt" stroke-dasharray="none" stroke-width="7" fill="#FFF"/>
			<rect id="rect5373" stroke-linejoin="round" stroke-dasharray="none" stroke-dashoffset="0" height="180" width="140" stroke="#333" stroke-linecap="round" y="-2174.7" x="1180" stroke-width="7" fill="#FFF"/>
			<path id="path5375" stroke-linejoin="round" d="m1310,500c0,11.046-8.9543,20-20,20s-20-8.9543-20-20,8.9543-20,20-20,20,8.9543,20,20z" transform="translate(-40,-2734.7324)" stroke-dashoffset="0" stroke="#333" stroke-linecap="round" stroke-dasharray="none" stroke-width="5" fill="#333"/>
			<path id="path5377" stroke-linejoin="miter" d="m1250-2214.7,0,40" stroke="#333" stroke-linecap="butt" stroke-dasharray="none" stroke-width="5" fill="#FFF"/>
			<path id="path5379" stroke-linejoin="miter" d="m1300-2144.7-70,0" stroke="#333" stroke-linecap="round" stroke-dasharray="none" stroke-width="4" fill="#FFF"/>
			<path id="path5381" stroke-linejoin="miter" d="m1230-2114.7,70,0" stroke="#333" stroke-linecap="round" stroke-dasharray="none" stroke-width="4" fill="#FFF"/>
			<path id="path5383" stroke-linejoin="miter" d="m1230-2084.7,70,0" stroke="#333" stroke-linecap="round" stroke-dasharray="none" stroke-width="4" fill="#FFF"/>
			<path id="path5385" stroke-linejoin="miter" d="m1230-2054.7,70,0" stroke="#333" stroke-linecap="round" stroke-dasharray="none" stroke-width="4" fill="#FFF"/>
			<path id="path5387" stroke-linejoin="miter" d="m1230-2024.7,70,0" stroke="#333" stroke-linecap="round" stroke-dasharray="none" stroke-width="4" fill="#FFF"/>
			<path id="path5389" stroke-linejoin="round" d="m1250,620c0,2.7614-2.2386,5-5,5s-5-2.2386-5-5,2.2386-5,5-5,5,2.2386,5,5z" fill-opacity="0.94117647" transform="matrix(1.3885202,0,0,1.3885202,-523.70766,-2975.615)" stroke-dashoffset="0" stroke="#333" stroke-linecap="round" stroke-dasharray="none" stroke-width="3" fill="#90b12f"/>
			<path id="path5490" stroke-linejoin="round" d="m1250,620c0,2.7614-2.2386,5-5,5s-5-2.2386-5-5,2.2386-5,5-5,5,2.2386,5,5z" fill-opacity="0.94117647" transform="matrix(1.3885202,0,0,1.3885202,-523.70766,-2915.5109)" stroke-dashoffset="0" stroke="#333" stroke-linecap="round" stroke-dasharray="none" stroke-width="3" fill="#90b12f"/>
			<rect id="rect5506" stroke-linejoin="round" stroke-dasharray="none" fill-opacity="0.97717" stroke-dashoffset="0" height="180" width="140" stroke="#333" stroke-linecap="round" y="-2174.7" x="1372" stroke-width="7" fill="#FFF"/>
			<path id="path5508" stroke-linejoin="round" d="m1310,500c0,11.046-8.9543,20-20,20s-20-8.9543-20-20,8.9543-20,20-20,20,8.9543,20,20z" fill-opacity="0.97716896" transform="translate(152,-2734.7324)" stroke-dashoffset="0" stroke="#333" stroke-linecap="round" stroke-dasharray="none" stroke-width="5" fill="#333"/>
			<path id="path5510" stroke-linejoin="miter" d="m1442-2214.7,0,40" fill-opacity="0.97716896" stroke="#333" stroke-linecap="butt" stroke-dasharray="none" stroke-width="5" fill="#FFF"/>
			<path id="path5512" stroke-linejoin="miter" d="m1492-2144.7-70,0" fill-opacity="0.97716896" stroke="#333" stroke-linecap="round" stroke-dasharray="none" stroke-width="4" fill="#FFF"/>
			<path id="path5514" stroke-linejoin="miter" d="m1422-2114.7,70,0" fill-opacity="0.97716896" stroke="#333" stroke-linecap="round" stroke-dasharray="none" stroke-width="4" fill="#FFF"/>
			<path id="path5516" stroke-linejoin="miter" d="m1422-2084.7,70,0" fill-opacity="0.97716896" stroke="#333" stroke-linecap="round" stroke-dasharray="none" stroke-width="4" fill="#FFF"/>
			<path id="path5518" stroke-linejoin="miter" d="m1422-2054.7,70,0" fill-opacity="0.97716896" stroke="#333" stroke-linecap="round" stroke-dasharray="none" stroke-width="4" fill="#FFF"/>
			<path id="path5520" stroke-linejoin="miter" d="m1422-2024.7,70,0" fill-opacity="0.97716896" stroke="#333" stroke-linecap="round" stroke-dasharray="none" stroke-width="4" fill="#FFF"/>
			<path id="path5522" stroke-linejoin="round" d="m1250,620c0,2.7614-2.2386,5-5,5s-5-2.2386-5-5,2.2386-5,5-5,5,2.2386,5,5z" fill-opacity="0.94117647" transform="matrix(1.3885202,0,0,1.3885202,-331.70766,-2975.615)" stroke-dashoffset="0" stroke="#333" stroke-linecap="round" stroke-dasharray="none" stroke-width="3" fill="#90b12f"/>
			<path id="path5524" stroke-linejoin="round" d="m1250,620c0,2.7614-2.2386,5-5,5s-5-2.2386-5-5,2.2386-5,5-5,5,2.2386,5,5z" fill-opacity="0.94117647" transform="matrix(1.3885202,0,0,1.3885202,-331.70766,-2915.5109)" stroke-dashoffset="0" stroke="#333" stroke-linecap="round" stroke-dasharray="none" stroke-width="3" fill="#90b12f"/>
		</g>
	</g>
</svg>
