<!-- Created with Inkscape (http://www.inkscape.org/) -->
<svg id="svg3866" xmlns:rdf="http://www.w3.org/1999/02/22-rdf-syntax-ns#" xmlns="http://www.w3.org/2000/svg" viewBox="0 0 400 400" version="1.1" xmlns:cc="http://creativecommons.org/ns#" xmlns:dc="http://purl.org/dc/elements/1.1/">
	<metadata id="metadata3871">
		<rdf:RDF>
			<cc:Work rdf:about="">
				<dc:format>image/svg+xml</dc:format>
				<dc:type rdf:resource="http://purl.org/dc/dcmitype/StillImage"/>
				<dc:title/>
			</cc:Work>
		</rdf:RDF>
	</metadata>
	<g id="layer1" transform="translate(0,-652.36218)">
		<g id="g6558" fill="#333" stroke-miterlimit="4" transform="matrix(0.43478261,0,0,0.43478261,167.47405,538.066)">
			<path id="path5526" d="m534.81,722.88a460,460,0,0,1,-920,0,460,460,0,1,1,920,0z" stroke-width="0"/>
			<rect id="rect5528" stroke-linejoin="round" stroke-dasharray="10, 30" stroke-dashoffset="0" height="520" width="440" stroke="#FFF" stroke-linecap="round" y="462.88" x="-145.19" stroke-width="10"/>
			<path id="path5538" stroke-linejoin="round" d="m-65.19,602.88a20,20,0,0,1,-40,0,20,20,0,1,1,40,0z" stroke-dashoffset="0" stroke="#FFF" stroke-linecap="round" stroke-dasharray="none" stroke-width="10"/>
			<path id="path5540" stroke-linejoin="round" d="m-65.19,842.88a20,20,0,0,1,-40,0,20,20,0,1,1,40,0z" stroke-dashoffset="0" stroke="#FFF" stroke-linecap="round" stroke-dasharray="none" stroke-width="10"/>
			<path id="path6222" stroke-linejoin="miter" d="m-85.19,602.88-100,0" stroke="#FFF" stroke-linecap="round" stroke-dasharray="none" stroke-width="10"/>
			<path id="path6224" stroke-linejoin="miter" d="m-85.19,842.88-100,0" stroke="#FFF" stroke-linecap="round" stroke-dasharray="none" stroke-width="10"/>
			<path id="path3219" stroke-linejoin="miter" d="M7.5897,718.59,206.81,665.21" stroke="#FFF" stroke-linecap="round" stroke-dasharray="none" stroke-width="10"/>
			<path id="path3221" stroke-linejoin="miter" d="M7.5897,664.26,206.81,610.88" stroke="#FFF" stroke-linecap="round" stroke-dasharray="none" stroke-width="10"/>
		</g>
	</g>
</svg>
