<!-- Created with Inkscape (http://www.inkscape.org/) -->
<svg id="svg3866" xmlns:rdf="http://www.w3.org/1999/02/22-rdf-syntax-ns#" xmlns="http://www.w3.org/2000/svg" viewBox="0 0 400 400" version="1.1" xmlns:cc="http://creativecommons.org/ns#" xmlns:dc="http://purl.org/dc/elements/1.1/">
	<metadata id="metadata3871">
		<rdf:RDF>
			<cc:Work rdf:about="">
				<dc:format>image/svg+xml</dc:format>
				<dc:type rdf:resource="http://purl.org/dc/dcmitype/StillImage"/>
				<dc:title/>
			</cc:Work>
		</rdf:RDF>
	</metadata>
	<g id="layer1" transform="translate(0,-652.36218)">
		<g id="g6638" stroke-miterlimit="4" transform="matrix(0.43478261,0,0,0.43478261,216.609,554.675)">
			<path id="path5548" d="m421.8,684.68a460,460,0,0,1,-920,0,460,460,0,1,1,920,0z" stroke-width="0" fill="#333"/>
			<path id="path5652" stroke-linejoin="miter" d="m-318.2,964.68,70.833-70.833,35.417,35.417,53.75-104.58,40,80,80-160" stroke="#FFF" stroke-linecap="butt" stroke-dasharray="none" stroke-width="8.85416698" fill="#333"/>
			<rect id="rect5656" stroke-linejoin="round" stroke-dasharray="none" stroke-dashoffset="0" height="285.48" width="241.56" stroke="#FFF" stroke-linecap="square" y="419.2" x="-19.761" stroke-width="10" fill="#333"/>
			<path id="path5658" stroke-linejoin="miter" d="M57.099,545.18,177.88,512.82" stroke="#FFF" stroke-linecap="round" stroke-dasharray="none" stroke-width="7" fill="#333"/>
			<path id="path5660" stroke-linejoin="round" d="m24.159,496.06a10.98,10.98,0,0,1,-21.96,0,10.98,10.98,0,1,1,21.96,0z" stroke-dashoffset="0" stroke="#FFF" stroke-linecap="round" stroke-dasharray="none" stroke-width="5" fill="#333"/>
			<path id="path5662" stroke-linejoin="round" d="m24.159,627.82a10.98,10.98,0,0,1,-21.96,0,10.98,10.98,0,1,1,21.96,0z" stroke-dashoffset="0" stroke="#FFF" stroke-linecap="round" stroke-dasharray="none" stroke-width="5" fill="#333"/>
			<path id="path5664" stroke-linejoin="miter" d="M57.099,512.24,177.88,479.88" stroke="#FFF" stroke-linecap="round" stroke-dasharray="none" stroke-width="7" fill="#333"/>
			<path id="path5666" stroke-linejoin="miter" d="m13.179,496.06-54.9,0" stroke="#FFF" stroke-linecap="round" stroke-dasharray="none" stroke-width="5" fill="#333"/>
			<path id="path5668" stroke-linejoin="miter" d="m13.179,627.82-54.9,0" stroke="#FFF" stroke-linecap="round" stroke-dasharray="none" stroke-width="5" fill="#333"/>
			<path id="path5670" d="m-72.201,758.68,40-20,0,40" stroke-width="0" fill="#FFF"/>
			<path id="path5672" stroke-linejoin="miter" d="m237.8,434.68,0,250" stroke="#FFF" stroke-linecap="round" stroke-dasharray="none" stroke-width="5" fill="#333"/>
			<path id="path6226" stroke-linejoin="miter" d="m251.8,444.68,0,230" stroke="#FFF" stroke-linecap="round" stroke-dasharray="none" stroke-width="5" fill="#333"/>
		</g>
	</g>
</svg>
