<!-- Created with Inkscape (http://www.inkscape.org/) -->
<svg id="svg3866" xmlns:rdf="http://www.w3.org/1999/02/22-rdf-syntax-ns#" xmlns="http://www.w3.org/2000/svg" viewBox="0 0 400 400" version="1.1" xmlns:cc="http://creativecommons.org/ns#" xmlns:dc="http://purl.org/dc/elements/1.1/">
	<metadata id="metadata3871">
		<rdf:RDF>
			<cc:Work rdf:about="">
				<dc:format>image/svg+xml</dc:format>
				<dc:type rdf:resource="http://purl.org/dc/dcmitype/StillImage"/>
				<dc:title/>
			</cc:Work>
		</rdf:RDF>
	</metadata>
	<g id="layer1" transform="translate(0,-652.36218)">
		<g id="g6268" fill="#333" stroke-miterlimit="4" transform="matrix(0.43478261,0,0,0.43478261,116.95502,475.78226)">
			<path id="path5351" d="m651,866.13a460,460,0,0,1,-920,0,460,460,0,1,1,920,0z" stroke-width="0"/>
			<rect id="rect5353" stroke-linejoin="round" stroke-dasharray="none" stroke-dashoffset="0" height="520" width="440" stroke="#FFF" stroke-linecap="square" y="606.13" x="-28.997" stroke-width="10"/>
			<path id="path5355" stroke-linejoin="miter" d="m111,835.61,220-58.949" stroke="#FFF" stroke-linecap="round" stroke-dasharray="none" stroke-width="10.48808861"/>
			<path id="path5357" stroke-linejoin="round" d="m51.003,746.13a20,20,0,0,1,-40,0,20,20,0,1,1,40,0z" stroke-dashoffset="0" stroke="#FFF" stroke-linecap="round" stroke-dasharray="none" stroke-width="10"/>
			<path id="path5359" stroke-linejoin="round" d="m51.003,986.13a20,20,0,0,1,-40,0,20,20,0,1,1,40,0z" stroke-dashoffset="0" stroke="#FFF" stroke-linecap="round" stroke-dasharray="none" stroke-width="10"/>
			<path id="path5361" stroke-linejoin="miter" d="m111,775.61,220-58.949" stroke="#FFF" stroke-linecap="round" stroke-dasharray="none" stroke-width="10.48808861"/>
			<path id="path5363" stroke-linejoin="miter" d="m31.003,746.13-100,0" stroke="#FFF" stroke-linecap="round" stroke-dasharray="none" stroke-width="10"/>
			<path id="path5365" stroke-linejoin="miter" d="m31.003,986.13-100,0" stroke="#FFF" stroke-linecap="round" stroke-dasharray="none" stroke-width="10"/>
			<path id="path5367" stroke-linejoin="miter" d="m431,626.13,0,480" stroke="#FFF" stroke-linecap="round" stroke-dasharray="none" stroke-width="10"/>
			<path id="path5369" stroke-linejoin="miter" d="m451,646.13,0,440" stroke="#FFF" stroke-linecap="round" stroke-dasharray="none" stroke-width="9.57427025"/>
		</g>
	</g>
</svg>
