<!-- Created with Inkscape (http://www.inkscape.org/) -->
<svg id="svg3866" xmlns:rdf="http://www.w3.org/1999/02/22-rdf-syntax-ns#" xmlns="http://www.w3.org/2000/svg" viewBox="0 0 400 400" version="1.1" xmlns:cc="http://creativecommons.org/ns#" xmlns:dc="http://purl.org/dc/elements/1.1/">
	<metadata id="metadata3871">
		<rdf:RDF>
			<cc:Work rdf:about="">
				<dc:format>image/svg+xml</dc:format>
				<dc:type rdf:resource="http://purl.org/dc/dcmitype/StillImage"/>
				<dc:title/>
			</cc:Work>
		</rdf:RDF>
	</metadata>
	<g id="layer1" transform="translate(0,-652.36218)">
		<g id="g6983" stroke-miterlimit="4" transform="matrix(0.43478261,0,0,0.43478261,391.00346,597.59773)">
			<path id="path6647" d="m20.692,586a460,460,0,0,1,-920,0,460,460,0,1,1,920,0z" stroke-width="0" fill="#333"/>
			<rect id="rect6770" stroke-linejoin="round" stroke-dasharray="none" stroke-dashoffset="0" height="520" width="440" stroke="#FFF" stroke-linecap="square" y="326" x="-659.31" stroke-width="10" fill="#333"/>
			<g id="g6822" transform="translate(-2924.1259,3.6331562)" stroke="#FFF" stroke-dasharray="none" fill="#FFF">
				<path id="path6774" stroke-linejoin="miter" d="m2420,492.36,179.89,0" stroke-linecap="round" stroke-width="9.48402882"/>
				<path id="path6776" stroke-linejoin="miter" d="m2420,612.36,179.89,0" stroke-linecap="round" stroke-width="9.48402882"/>
				<path id="path6786" stroke-linejoin="miter" d="m2420,552.36,179.89,0" stroke-linecap="round" stroke-width="9.48402882"/>
				<path id="path6788" stroke-linejoin="miter" d="m2420,672.36,179.89,0" stroke-linecap="round" stroke-width="9.48402882"/>
				<path id="path6814" stroke-linejoin="round" d="m2430,5440a10,10,0,1,1,-20,0,10,10,0,1,1,20,0z" transform="translate(-40,-4947.6378)" stroke-dashoffset="0" stroke-linecap="square" stroke-width="10"/>
				<path id="path6816" stroke-linejoin="round" d="m2430,5440a10,10,0,1,1,-20,0,10,10,0,1,1,20,0z" transform="translate(-40,-4887.6378)" stroke-dashoffset="0" stroke-linecap="square" stroke-width="10"/>
				<path id="path6818" stroke-linejoin="round" d="m2430,5440a10,10,0,1,1,-20,0,10,10,0,1,1,20,0z" transform="translate(-40,-4827.6378)" stroke-dashoffset="0" stroke-linecap="square" stroke-width="10"/>
				<path id="path6820" stroke-linejoin="round" d="m2430,5440a10,10,0,1,1,-20,0,10,10,0,1,1,20,0z" transform="translate(-40,-4767.6378)" stroke-dashoffset="0" stroke-linecap="square" stroke-width="10"/>
			</g>
		</g>
	</g>
</svg>
